<?xml version="1.0" encoding="UTF-8"?>
<svg xmlns="http://www.w3.org/2000/svg" viewBox="0 0 226.77 79.37">
  <defs>
    <style>.a{fill:#fec800;}.a,.b{fill-rule:evenodd;}.b{fill:#0067ac;}</style>
  </defs>
  <path class="a" d="M30,47.16a3.22,3.22,0,1,1,0-6.43,3.22,3.22,0,0,1,0,6.43"></path>
  <path class="a" d="M30,67.77a3.22,3.22,0,1,1,0-6.44,3.22,3.22,0,0,1,0,6.44"></path>
  <path class="b" d="M0,54A25.37,25.37,0,0,0,25.32,79.37a3.28,3.28,0,0,0,0-6.55,18.84,18.84,0,0,1,0-37.68,3.28,3.28,0,0,0,0-6.55A25.39,25.39,0,0,0,0,54"></path>
  <path class="b" d="M37.53,54.14A20.35,20.35,0,1,0,57.91,33.75,20.39,20.39,0,0,0,37.53,54.14m6.57,0A13.79,13.79,0,1,1,57.91,68,13.85,13.85,0,0,1,44.1,54.14"></path>
  <path class="b" d="M186.09,54.14a20.34,20.34,0,1,0,20.32-20.39,20.38,20.38,0,0,0-20.32,20.39m6.53,0A13.81,13.81,0,1,1,206.41,68a13.85,13.85,0,0,1-13.79-13.83"></path>
  <path class="a" d="M81.05,34.55a3.3,3.3,0,0,0,0,6.59h24.41C97.8,48.76,78.73,67.66,78.73,67.66a3.28,3.28,0,0,0-1,2.34A2.93,2.93,0,0,0,78,71.23a3.21,3.21,0,0,0,3,2h32.42a3.27,3.27,0,1,0,0-6.54H89c7.7-7.66,26.76-26.57,26.76-26.57a3,3,0,0,0,1-2.28,3,3,0,0,0-.26-1.28,3.19,3.19,0,0,0-3-2Z"></path>
  <path class="b" d="M137.57,33.43a16.27,16.27,0,0,0-16.22,16.29V71.15a3.29,3.29,0,0,0,6.57,0V49.72A9.7,9.7,0,0,1,137.57,40h1.24a9.71,9.71,0,0,1,9.69,9.73V71.15a3.27,3.27,0,1,0,6.53,0V49.72a16.28,16.28,0,0,0-16.22-16.29Z"></path>
  <path class="b" d="M164.74,33.43A16.29,16.29,0,0,0,148.5,49.72V71.15a3.27,3.27,0,1,0,6.53,0V49.72A9.74,9.74,0,0,1,164.74,40H166a9.73,9.73,0,0,1,9.7,9.73V71.15a3.27,3.27,0,1,0,6.54,0V49.72A16.29,16.29,0,0,0,166,33.43Z"></path>
  <path class="b" d="M38.94,24.14a21,21,0,0,1-5.83.19c-.37,0-.52-.19-.59-.41v-.37c.07-.65.15-1.29.22-2a.52.52,0,0,1,.44-.54,1.15,1.15,0,0,1,.49,0,17,17,0,0,0,4.62,0c1.58-.3,3.32-1.3,3-3.1-.19-1.29-1.34-1.85-2.64-2.17s-2.89-.76-4.34-1.08c-2.4-.56-4.22-1.9-4.68-4.09C28.92,7.18,32.41,4.45,36,3.83a15.08,15.08,0,0,1,6,.07c.41.12.69.25.71.47s0,.21,0,.39c-.2.62-.37,1.21-.55,1.81-.08.33-.23.51-.47.52a1.56,1.56,0,0,1-.55,0,13.24,13.24,0,0,0-4.38-.18C35.32,7.12,33.67,8,34,9.61c.23,1.13,1.6,1.59,2.7,1.84,1.26.32,2.46.64,3.71.94,2.65.69,4.53,2,4.88,4.55.52,4-2.52,6.51-6.31,7.2"></path>
  <path class="b" d="M52.17,22c-.66,0-1.39.11-2.09.19-.52.06-.78-.08-.82-.61-.52-4.12-1-8.27-1.52-12.42,0-.46.24-.69.78-.73.74-.09,1.48-.16,2.24-.27.5-.07.8.07.84.59.41,4.13.82,8.29,1.22,12.4.07.54-.16.77-.65.85"></path>
  <path class="b" d="M77.62,21.07c-.69,0-1.37-.06-2.08-.07-.52,0-.78-.21-.76-.74.06-2.63.11-5.21.17-7.8,0-1.56-.39-2.75-2.3-2.78A6.63,6.63,0,0,0,69.08,11c.08.3.19,4.1.19,4.5v4.76c0,.51-.19.71-.67.74-.69,0-1.3,0-2,0s-.77-.19-.77-.7c-.12-2.6-.18-5.23-.23-7.83-.07-1.53-.44-2.68-2.38-2.63a5.64,5.64,0,0,0-3.43,1.58c.21,3.05.37,6.07.55,9.12,0,.52-.2.72-.68.75-.72.08-1.39.09-2.11.13-.51.06-.77-.11-.82-.64-.3-4.14-.64-8.3-.95-12.45-.05-.47.21-.71.69-.71.7-.06,1.41-.09,2.11-.15.47,0,.71.1.82.5,0,.22,0,.46,0,.72a7.41,7.41,0,0,1,4.62-1.85,4.48,4.48,0,0,1,4.1,1.74,8.09,8.09,0,0,1,5.44-1.84A4.77,4.77,0,0,1,78,9a7.89,7.89,0,0,1,.63,4.18c-.1,2.42-.22,4.79-.3,7.22,0,.54-.22.71-.74.7"></path>
  <path class="b" d="M94,20.79A6.23,6.23,0,0,1,89.2,22.2a5.49,5.49,0,0,1-3.49-1.64c-.15,2.11-.34,4.29-.52,6.34,0,.61-.26.77-.74.71-.74,0-1.37-.1-2-.12a.63.63,0,0,1-.65-.78c.37-6.21.76-12.41,1.11-18.62,0-.49.28-.64.8-.61s1.26.09,1.93.12c.5,0,.81.19.81.61a6.78,6.78,0,0,0,0,.78A6.6,6.6,0,0,1,91,7.72,6.07,6.07,0,0,1,95.36,10a7.44,7.44,0,0,1,1.32,5.59A8.7,8.7,0,0,1,94,20.79m-1.75-8.95a3.11,3.11,0,0,0-2.45-1.42,4.65,4.65,0,0,0-3.34,1.1c-.18,2.05-.37,4.15-.5,6.21a4,4,0,0,0,2.84,1.65,3.14,3.14,0,0,0,2.51-.81,5.26,5.26,0,0,0,1.45-3.35,5.16,5.16,0,0,0-.51-3.38"></path>
  <path class="b" d="M101.45,23.45c-.74-.11-1.44-.25-2.21-.32-.43-.07-.68-.3-.57-.79.94-6.2,1.85-12.37,2.78-18.55.08-.5.3-.61.78-.59.76,0,1.56.08,2.38.09h.22c.39.08.7.3.63.76-1.08,6.27-2.15,12.56-3.23,18.8-.07.49-.33.7-.78.6"></path>
  <path class="b" d="M121.9,14.43c-3.3,4.24-6.45,8.51-9.46,12.9-2.08,3-3.9,3.82-7.24,3.12a5.52,5.52,0,0,1-1.54-.42.42.42,0,0,1-.31-.53c0-.09.05-.14.05-.24.17-.49.32-1,.48-1.44s.32-.45.61-.42c0,0,.12,0,.19,0,.34.08.67.24.95.3a3,3,0,0,0,3.51-1.32c.27-.37.55-.75.79-1.13Q108.75,18.16,107.1,11c0-.11,0-.14,0-.27a.46.46,0,0,1,.53-.31c1,.21,2,.39,3.07.61a.75.75,0,0,1,.65.63c.54,3.35,1,6.67,1.41,10q2.58-4.19,5.33-8.26a.83.83,0,0,1,1.07-.44c.85.25,1.69.44,2.52.67.32.08.47.28.38.5s-.06.14-.12.27"></path>
  <path class="a" d="M49.07,6.48a3.25,3.25,0,0,1-3.15-3.32A3.32,3.32,0,0,1,49.26,0a3.27,3.27,0,0,1,3.1,3.34,3.19,3.19,0,0,1-3.29,3.14"></path>
</svg>
