<?xml version="1.0" encoding="UTF-8"?>
<svg xmlns="http://www.w3.org/2000/svg" viewBox="0 0 164.83 127.56">
  <defs>
    <style>.a{fill:#676c72;}.b{fill:#ea5a4f;}</style>
  </defs>
  <path class="a" d="M47.16,46.64a7.79,7.79,0,0,0,.1-1.22V44.24a9.53,9.53,0,0,0-.3-2.62A4.27,4.27,0,0,0,46.12,40a3.15,3.15,0,0,0-1.31-.87,5.36,5.36,0,0,0-1.67-.25,5,5,0,0,0-2.62.63,4.72,4.72,0,0,0-1.64,1.71A8.94,8.94,0,0,0,38,43.68a19.76,19.76,0,0,0-.39,3Zm-9.66.66c0,.31,0,.63,0,1s0,.74,0,1.24a30.82,30.82,0,0,0,.19,3.24,10,10,0,0,0,.82,3A5.69,5.69,0,0,0,40.35,58a5.59,5.59,0,0,0,3.31.89,8.23,8.23,0,0,0,3.41-.61,6.34,6.34,0,0,0,2.11-1.48,6.25,6.25,0,0,0,1.15-1.76c.25-.59.44-1.08.57-1.46l.7.15q-.15.51-.54,1.47a6.76,6.76,0,0,1-1.27,1.93,7.6,7.6,0,0,1-2.35,1.69,8.58,8.58,0,0,1-3.82.73,12.27,12.27,0,0,1-4.35-.75,9.9,9.9,0,0,1-3.45-2.16,9.79,9.79,0,0,1-2.27-3.36,11.37,11.37,0,0,1-.8-4.34,10.22,10.22,0,0,1,.83-4,11.26,11.26,0,0,1,5.61-5.87,9.37,9.37,0,0,1,7-.44,8.29,8.29,0,0,1,2.79,1.52A8.5,8.5,0,0,1,51.11,43,9.55,9.55,0,0,1,52,47.3Z"></path>
  <path class="a" d="M68.35,47.43h-.09c-.06.41-.58.82-1.55,1.23l-3.53,1.4a5.22,5.22,0,0,0-2.31,1.72,4.55,4.55,0,0,0-.79,2.74A7.43,7.43,0,0,0,60.22,56a3.67,3.67,0,0,0,.51,1.34,2.91,2.91,0,0,0,1.06,1,3.69,3.69,0,0,0,1.77.37A4.35,4.35,0,0,0,66.07,58a4.27,4.27,0,0,0,1.46-1.65,6.79,6.79,0,0,0,.66-2.13,14.88,14.88,0,0,0,.16-2.09Zm8.23,11a6.88,6.88,0,0,1-1.45.82,5.49,5.49,0,0,1-2.07.35,4.67,4.67,0,0,1-3.28-1,5.09,5.09,0,0,1-1.39-2.7h-.08c-.13.28-.3.63-.52,1a4.15,4.15,0,0,1-1,1.22,5.52,5.52,0,0,1-1.81,1,8.66,8.66,0,0,1-2.87.4,9.09,9.09,0,0,1-3.16-.45A5,5,0,0,1,57.11,58a3.18,3.18,0,0,1-.87-1.48A6.2,6.2,0,0,1,56,55a4.63,4.63,0,0,1,.67-2.63,4.7,4.7,0,0,1,1.71-1.57,11,11,0,0,1,2.35-1c.87-.25,1.74-.51,2.61-.79,1-.35,1.89-.65,2.57-.9a4.34,4.34,0,0,0,1.57-.91,2.76,2.76,0,0,0,.78-1.36,9.39,9.39,0,0,0,.21-2.23,12.4,12.4,0,0,0-.14-2,4.32,4.32,0,0,0-.52-1.53,2.33,2.33,0,0,0-1.08-1,4.5,4.5,0,0,0-1.88-.33,5.44,5.44,0,0,0-2.57.54,1.83,1.83,0,0,0-1,1.75,8.16,8.16,0,0,0,.14,1.56,7.32,7.32,0,0,1,.13,1.15A1.47,1.47,0,0,1,61.1,45a1.93,1.93,0,0,1-1.36.44c-1,0-1.67-.19-1.92-.56a2.59,2.59,0,0,1-.38-1.46,4.25,4.25,0,0,1,.48-2,4.85,4.85,0,0,1,1.38-1.67,6.75,6.75,0,0,1,2.31-1.15,10.9,10.9,0,0,1,3.17-.43,10.56,10.56,0,0,1,3.63.54,6.32,6.32,0,0,1,2.35,1.46A5.33,5.33,0,0,1,72,42.22a7.81,7.81,0,0,1,.38,2.42V56.35a2.78,2.78,0,0,0,.42,1.83,1.53,1.53,0,0,0,1.22.47,3.59,3.59,0,0,0,1.08-.18,4.32,4.32,0,0,0,1.08-.57Z"></path>
  <path class="a" d="M83.87,48.18q0,2.45.15,4.44a11.09,11.09,0,0,0,.7,3.4,4.48,4.48,0,0,0,1.68,2.16,6.47,6.47,0,0,0,6.21-.09,5.8,5.8,0,0,0,1.84-2.18,9.76,9.76,0,0,0,.89-3,22.26,22.26,0,0,0,.24-3.2c0-1.22,0-2.27-.07-3.16a18.62,18.62,0,0,0-.26-2.38,7.83,7.83,0,0,0-.52-1.78,7.11,7.11,0,0,0-.79-1.4,5.44,5.44,0,0,0-1.83-1.55,5.87,5.87,0,0,0-2.85-.61,5,5,0,0,0-2.69.65,4.31,4.31,0,0,0-1.64,1.88,9.66,9.66,0,0,0-.82,2.93A28.16,28.16,0,0,0,83.87,48.18ZM92,25.06h7.67V58.27h3.61v.66H95.68V54.84h-.1A11.39,11.39,0,0,1,95,56.21a6,6,0,0,1-1.11,1.55,6.45,6.45,0,0,1-1.82,1.29,6.13,6.13,0,0,1-2.7.54,9,9,0,0,1-3.92-.89,11,11,0,0,1-3.25-2.4A11.37,11.37,0,0,1,80,52.85a10.35,10.35,0,0,1-.82-4.1,10.46,10.46,0,0,1,.79-4,10.72,10.72,0,0,1,2.16-3.35,10.48,10.48,0,0,1,3.14-2.3,8.54,8.54,0,0,1,3.8-.87,6.56,6.56,0,0,1,4.17,1.26,7,7,0,0,1,2.25,3.1h.11V25.72H92Z"></path>
  <path class="a" d="M121.07,46.64a7.79,7.79,0,0,0,.1-1.22V44.24a9.53,9.53,0,0,0-.3-2.62A4.41,4.41,0,0,0,120,40a3.12,3.12,0,0,0-1.32-.87,5.21,5.21,0,0,0-1.66-.25,4.93,4.93,0,0,0-2.62.63,4.64,4.64,0,0,0-1.64,1.71,8.63,8.63,0,0,0-.91,2.49,18.53,18.53,0,0,0-.4,3Zm-9.66.66c0,.31,0,.63,0,1s0,.74,0,1.24a28.25,28.25,0,0,0,.18,3.24,10,10,0,0,0,.82,3A5.69,5.69,0,0,0,114.26,58a5.61,5.61,0,0,0,3.31.89,8.23,8.23,0,0,0,3.41-.61,6.34,6.34,0,0,0,2.11-1.48,6.48,6.48,0,0,0,1.15-1.76c.25-.59.44-1.08.56-1.46l.71.15q-.15.51-.54,1.47a6.76,6.76,0,0,1-1.27,1.93,7.73,7.73,0,0,1-2.35,1.69,8.6,8.6,0,0,1-3.83.73,12.25,12.25,0,0,1-4.34-.75,10,10,0,0,1-3.46-2.16,9.9,9.9,0,0,1-2.26-3.36,11.37,11.37,0,0,1-.8-4.34,10.38,10.38,0,0,1,.82-4,11.33,11.33,0,0,1,5.62-5.87,9.56,9.56,0,0,1,4.14-.91,9.66,9.66,0,0,1,2.82.47,8.29,8.29,0,0,1,2.79,1.52A8.63,8.63,0,0,1,125,43a9.69,9.69,0,0,1,.86,4.32Z"></path>
  <path class="a" d="M129.3,58.27h3.61V39.43H129.3v-.65h7.56v4.74h.1a9.93,9.93,0,0,1,.61-1.59,7,7,0,0,1,1.18-1.72,6.78,6.78,0,0,1,1.8-1.38,5.44,5.44,0,0,1,2.56-.56,4.49,4.49,0,0,1,1.87.35,4,4,0,0,1,1.32.89,3.4,3.4,0,0,1,.75,1.25,4.24,4.24,0,0,1,.23,1.4,2.45,2.45,0,0,1-.7,2.07,2.74,2.74,0,0,1-1.65.51c-1.38,0-2.07-.42-2.07-1.28a1.84,1.84,0,0,1,.1-.68c.06-.18.13-.35.21-.53a3.67,3.67,0,0,0,.21-.59,3.75,3.75,0,0,0,.09-.94c0-1-.54-1.52-1.63-1.52a2.87,2.87,0,0,0-1.6.57,5.9,5.9,0,0,0-1.57,1.64A10.19,10.19,0,0,0,137.46,44a11.37,11.37,0,0,0-.5,3.5V58.27h4.09v.66H129.3Z"></path>
  <path class="a" d="M149.76,52.35h.52a17.12,17.12,0,0,0,.84,2.28,8.35,8.35,0,0,0,1.39,2.12,6.63,6.63,0,0,0,5.19,2.18,4.18,4.18,0,0,0,2.67-.92,3.52,3.52,0,0,0,1.17-3,3,3,0,0,0-.91-2.51,7,7,0,0,0-2.14-1.15l-3.65-1.27c-.48-.16-1-.35-1.53-.59a5.27,5.27,0,0,1-1.52-1,4.53,4.53,0,0,1-1.15-1.62,6,6,0,0,1-.45-2.54,5.9,5.9,0,0,1,.51-2.44,6.22,6.22,0,0,1,3.54-3.28,7.66,7.66,0,0,1,2.7-.47,6.78,6.78,0,0,1,1.66.16c.43.11.79.22,1.11.32s.59.22.84.33a2.41,2.41,0,0,0,.9.16.8.8,0,0,0,.74-.38h.52v5.36h-.52a18.9,18.9,0,0,0-.74-2,8.86,8.86,0,0,0-1-1.71A4.16,4.16,0,0,0,159,39.27a4.64,4.64,0,0,0-2-.42,5.39,5.39,0,0,0-3.5,1,3.28,3.28,0,0,0-1.24,2.69,2.66,2.66,0,0,0,1.05,2.28,11.13,11.13,0,0,0,3.13,1.43l3.43,1.13a10.08,10.08,0,0,1,3.62,2.06,4.57,4.57,0,0,1,1.4,3.48,6.52,6.52,0,0,1-.49,2.48,5.92,5.92,0,0,1-1.46,2.14A7.48,7.48,0,0,1,160.54,59a8.53,8.53,0,0,1-3.17.56,8,8,0,0,1-1.9-.21c-.58-.14-1.12-.29-1.6-.45s-.93-.3-1.34-.45a3.44,3.44,0,0,0-1.13-.21,1.12,1.12,0,0,0-.75.21,1.88,1.88,0,0,0-.37.45h-.52Z"></path>
  <path class="b" d="M107.54,67.63c0-.22,0-.45,0-.69a5.05,5.05,0,0,1,.07-.68,2.54,2.54,0,0,1,.17-.63,1.58,1.58,0,0,1,.35-.53,1.51,1.51,0,0,1,.56-.36,2.58,2.58,0,0,1,.85-.13,1.76,1.76,0,0,1,.46.06,1.18,1.18,0,0,1,.4.17.92.92,0,0,1,.29.3.84.84,0,0,1,.11.45.52.52,0,0,1-.17.4.59.59,0,0,1-.4.16c-.36,0-.54-.17-.54-.52a.89.89,0,0,1,0-.11l0-.16a.89.89,0,0,0,0-.15.46.46,0,0,0,0-.1.28.28,0,0,0-.13-.27.53.53,0,0,0-.3-.09.49.49,0,0,0-.33.11.6.6,0,0,0-.18.29,2.37,2.37,0,0,0-.06.41c0,.16,0,.33,0,.51v1.56h.84v.14h-.84v4h.78V72h-2.68v-.14h.67v-4h-.67v-.14Z"></path>
  <path class="b" d="M112.23,67.63v3.2a1.3,1.3,0,0,0,.15.65.56.56,0,0,0,.53.27.89.89,0,0,0,.43-.11,1.18,1.18,0,0,0,.33-.3,1.49,1.49,0,0,0,.21-.44,1.82,1.82,0,0,0,.08-.52V67.77h-.67v-.14h1.9v4.19h.67V72H114v-.82h0a1.14,1.14,0,0,1-.25.39,1.4,1.4,0,0,1-.36.28,1.77,1.77,0,0,1-.45.18,2.3,2.3,0,0,1-.45.05,1.64,1.64,0,0,1-1.08-.31,1.27,1.27,0,0,1-.38-1V67.77h-.67v-.14Z"></path>
  <polygon class="b" points="118.49 64.68 118.49 71.82 119.17 71.82 119.17 71.96 116.58 71.96 116.58 71.82 117.26 71.82 117.26 64.82 116.58 64.82 116.58 64.68 118.49 64.68"></polygon>
  <polygon class="b" points="121.67 64.68 121.67 71.82 122.35 71.82 122.35 71.96 119.76 71.96 119.76 71.82 120.44 71.82 120.44 64.82 119.76 64.82 119.76 64.68 121.67 64.68"></polygon>
  <path class="b" d="M126.89,67.77h-.84v-.14h1.46v.14h-.46c-.38.81-.7,1.53-1,2.17s-.51,1.21-.71,1.71-.37.93-.52,1.32-.29.71-.43,1a2,2,0,0,1-.45.67,1,1,0,0,1-.68.21,1.23,1.23,0,0,1-.74-.22.7.7,0,0,1-.29-.6.47.47,0,0,1,.19-.42.73.73,0,0,1,.45-.13.65.65,0,0,1,.36.1.36.36,0,0,1,.17.32.67.67,0,0,1-.06.3.44.44,0,0,0-.07.26.21.21,0,0,0,.2.22.5.5,0,0,0,.34-.13,1.52,1.52,0,0,0,.28-.33,2.78,2.78,0,0,0,.22-.42c.07-.15.12-.28.17-.4l.44-1.08-1.9-4.55h-.54v-.14h2.57v.14h-.71l1.23,2.92Z"></path>
  <path class="b" d="M132.48,70.49a2.63,2.63,0,0,0,.15.71,1.39,1.39,0,0,0,.36.55,1,1,0,0,0,.66.21.64.64,0,0,0,.45-.15.94.94,0,0,0,.25-.43,2.61,2.61,0,0,0,.11-.68q0-.4,0-.9a9.63,9.63,0,0,0-.05-1,2.39,2.39,0,0,0-.15-.67.86.86,0,0,0-.29-.37.81.81,0,0,0-.43-.11.84.84,0,0,0-.6.21,1.33,1.33,0,0,0-.33.54,3,3,0,0,0-.15.7q0,.39,0,.72C132.46,70,132.47,70.24,132.48,70.49Zm-1.92-5.67v-.14h1.9v3.66h0a1.27,1.27,0,0,1,.43-.64,1.22,1.22,0,0,1,.74-.21,2.08,2.08,0,0,1,1,.23,2.22,2.22,0,0,1,.68.57,2.11,2.11,0,0,1,.39.74,2.43,2.43,0,0,1,.13.76,2.35,2.35,0,0,1-.16.87,2.48,2.48,0,0,1-.45.73,2.21,2.21,0,0,1-.69.51,2,2,0,0,1-.9.19,1.16,1.16,0,0,1-.74-.22,1.39,1.39,0,0,1-.45-.66h0V72h-1.87v-.14h.67v-7Z"></path>
  <path class="b" d="M139.66,71.78a1.12,1.12,0,0,0,.33-.49,2.42,2.42,0,0,0,.13-.7c0-.26,0-.53,0-.8s0-.53,0-.79a2.35,2.35,0,0,0-.13-.69,1.07,1.07,0,0,0-.33-.49.89.89,0,0,0-.61-.19.9.9,0,0,0-.62.19,1.07,1.07,0,0,0-.33.49A2.73,2.73,0,0,0,138,69c0,.26,0,.52,0,.79s0,.54,0,.8a2.81,2.81,0,0,0,.13.7,1.12,1.12,0,0,0,.33.49,1,1,0,0,0,.62.18A.94.94,0,0,0,139.66,71.78Zm.36-4.11a3,3,0,0,1,.79.5,2.23,2.23,0,0,1,.51.74,2.16,2.16,0,0,1,0,1.77,2.23,2.23,0,0,1-.51.74,2.59,2.59,0,0,1-1.76.67,2.63,2.63,0,0,1-1-.18,2.4,2.4,0,0,1-.78-.49,2.26,2.26,0,0,1-.52-.74,2.16,2.16,0,0,1,0-1.77,2.26,2.26,0,0,1,.52-.74,2.82,2.82,0,0,1,.78-.5,2.63,2.63,0,0,1,1-.18A2.58,2.58,0,0,1,140,67.67Z"></path>
  <path class="b" d="M145.28,71.78a1.12,1.12,0,0,0,.33-.49,2.81,2.81,0,0,0,.13-.7c0-.26,0-.53,0-.8s0-.53,0-.79a2.73,2.73,0,0,0-.13-.69,1.07,1.07,0,0,0-.33-.49.9.9,0,0,0-.62-.19.92.92,0,0,0-.62.19,1.13,1.13,0,0,0-.32.49,2.35,2.35,0,0,0-.13.69c0,.26,0,.52,0,.79s0,.54,0,.8a2.42,2.42,0,0,0,.13.7,1.2,1.2,0,0,0,.32.49,1,1,0,0,0,.62.18A1,1,0,0,0,145.28,71.78Zm.35-4.11a2.73,2.73,0,0,1,.79.5,2.42,2.42,0,0,1,.52.74,2.16,2.16,0,0,1,0,1.77,2.42,2.42,0,0,1-.52.74,2.35,2.35,0,0,1-.79.49,2.54,2.54,0,0,1-1,.18,2.59,2.59,0,0,1-1.76-.67,2.23,2.23,0,0,1-.51-.74,2.16,2.16,0,0,1,0-1.77,2.23,2.23,0,0,1,.51-.74,3,3,0,0,1,.79-.5,2.58,2.58,0,0,1,1-.18A2.54,2.54,0,0,1,145.63,67.67Z"></path>
  <polygon class="b" points="149.72 64.68 149.72 69.5 149.77 69.5 151.65 67.77 150.91 67.77 150.91 67.63 152.5 67.63 152.5 67.77 151.85 67.77 150.72 68.84 153.03 71.82 153.43 71.82 153.43 71.96 150.75 71.96 150.75 71.82 151.48 71.82 149.77 69.64 149.72 69.64 149.72 71.82 150.35 71.82 150.35 71.96 147.82 71.96 147.82 71.82 148.49 71.82 148.49 64.82 147.82 64.82 147.82 64.68 149.72 64.68"></polygon>
  <path class="b" d="M156.69,68.61c0-.07,0-.16,0-.27a1,1,0,0,0-.07-.33.83.83,0,0,0-.19-.27.61.61,0,0,0-.38-.11.81.81,0,0,0-.54.16,1,1,0,0,0-.27.41,1.58,1.58,0,0,0-.12.54c0,.19,0,.37,0,.55h1.62Zm-1.62,1.27c0,.24,0,.49,0,.73a2.27,2.27,0,0,0,.16.67,1.25,1.25,0,0,0,.39.49,1.13,1.13,0,0,0,.71.19,1.4,1.4,0,0,0,.68-.15,1.69,1.69,0,0,0,.46-.35,1.47,1.47,0,0,0,.26-.39,1.2,1.2,0,0,0,.1-.28l.14,0a1.7,1.7,0,0,1-.17.41,1.53,1.53,0,0,1-.33.4A2,2,0,0,1,157,72a2.16,2.16,0,0,1-.76.12,3.1,3.1,0,0,1-1-.15,2.43,2.43,0,0,1-.8-.46,2.24,2.24,0,0,1-.53-.72,2.38,2.38,0,0,1-.19-1,2.13,2.13,0,0,1,.18-.85,2.43,2.43,0,0,1,.5-.73,2.71,2.71,0,0,1,.75-.52,2.21,2.21,0,0,1,.93-.19,2.43,2.43,0,0,1,.7.11,1.88,1.88,0,0,1,.64.34,1.85,1.85,0,0,1,.46.6,1.87,1.87,0,0,1,.19.88h-3Z"></path>
  <path class="b" d="M162.15,69.08a3.6,3.6,0,0,0-.15-.7,1.23,1.23,0,0,0-.33-.54.84.84,0,0,0-.6-.21.71.71,0,0,0-.71.48,2.35,2.35,0,0,0-.16.67,10,10,0,0,0,0,1c0,.33,0,.63,0,.9a3.87,3.87,0,0,0,.11.68,1,1,0,0,0,.26.43A.62.62,0,0,0,161,72a1,1,0,0,0,.66-.21,1.39,1.39,0,0,0,.36-.55,2.3,2.3,0,0,0,.14-.71q0-.37,0-.69T162.15,69.08Zm1.93,2.74V72H162.2v-.75h0a1.55,1.55,0,0,1-.45.66,1.16,1.16,0,0,1-.74.22,2,2,0,0,1-.89-.19,2.38,2.38,0,0,1-.7-.51,2.45,2.45,0,0,1-.44-.73,2.35,2.35,0,0,1-.16-.87,2.72,2.72,0,0,1,.12-.76,2.5,2.5,0,0,1,.39-.74,2.22,2.22,0,0,1,.68-.57,2.08,2.08,0,0,1,1-.23,1.22,1.22,0,0,1,.74.21,1.34,1.34,0,0,1,.43.64h0V64.82h-.69v-.14h1.93v7.14Z"></path>
  <path class="b" d="M.43,49.49v1.94C16.13,58.89,14,87.5,14,87.5c0,37.35,14.78,39.29,14.78,39.29-3.08-1.69-10.53-6.05-10.53-39.45,0-20.19-5.23-29.58-10-33.94a28.25,28.25,0,0,1,9.2,15.85A147.86,147.86,0,0,1,20,93.49c.63,13.77,1.17,25.13,11.14,33.66.28,0,.59.09.91.13-10.39-8.48-10.93-19.9-11.57-33.81a148.76,148.76,0,0,0-2.57-24.31,27.61,27.61,0,0,0-10-16.43c4.33,2.86,8.59,8.48,10.53,16,2.29,8.88,2.91,17.38,3.44,24.87,1,14.32,1.88,26,13.17,33.92l.91,0c-11.7-7.81-12.56-19.55-13.6-34-.54-7.52-1.15-16-3.45-25C17,61.45,13.06,56,8.93,52.91c4.16,2.79,8.19,7.94,10.44,15.31C22.1,77.16,23,85.92,23.7,93.65c1.42,14.76,2.58,26.72,15,33.85l.89-.06c-12.79-7-14-19-15.39-33.83-.75-7.76-1.6-16.55-4.35-25.53a29.5,29.5,0,0,0-9.3-14.59c3.8,2.78,7.44,7.44,9.83,14.21,3.17,9,4.25,18,5.21,25.93,1.74,14.5,3.28,27.17,16.59,33.51L43,127c-13.64-6.08-15.11-18.27-16.94-33.44-1-8-2.05-17-5.23-26-2.64-7.47-6.79-12.42-11-15.13,4.7,2.69,8.78,7.82,11.57,14.77,3.59,8.93,4.92,18.19,6.09,26.36,2.12,14.73,4,27.57,17.89,33l.83-.21c-14.25-5.14-16-17.46-18.24-32.85C26.75,85.28,25.41,76,21.8,67c-2.46-6.12-5.91-10.85-9.91-13.79,3.55,2.36,7.3,6.45,10.46,13.46,4,8.88,5.57,18.37,7,26.74,2.47,14.85,4.62,27.79,18.9,32.33l.81-.27c-14.6-4.27-16.76-17.23-19.23-32.14-1.4-8.4-3-17.92-7-26.86-3.44-7.64-7.59-11.88-11.45-14.19,4.65,2.5,8.62,7.1,12,13.87,4.41,8.82,6.23,18.53,7.84,27.09,2.79,14.88,5.24,27.84,19.62,31.58l.77-.31c-14.66-3.46-17.11-16.43-19.92-31.36-1.61-8.6-3.44-18.34-7.88-27.22-3.13-6.25-6.76-10.68-11-13.35,3.75,2.19,7.69,6.09,11.52,13C29.14,74.37,31.12,83.86,33,93c3.1,14.82,5.81,27.74,20,30.8l.74-.36c-14.48-2.76-17.2-15.68-20.31-30.54-1.83-8.79-3.92-18.74-8.76-27.54-4-7.21-8-11.19-11.95-13.38,4.2,2.09,8.27,6,12.52,13.09,5.2,8.65,7.43,18.33,9.58,27.69,3.38,14.68,6.34,27.49,20.22,30l.68-.37c-14.09-2.23-17-15-20.43-29.75-2.06-9-4.4-19.13-9.64-27.84C21.79,58.29,18,54.41,14.1,52.16c3.82,2,7.82,5.7,12.21,12.43,5.58,8.55,8.17,18.86,10.45,28,3.62,14.45,6.8,27.09,20.14,29.27l.66-.4c-13.53-1.88-16.71-14.52-20.33-29-2.29-9.14-4.89-19.5-10.51-28.12C19.46,53.2,13.29,50,5.65,49.34a34,34,0,0,0,11.63-3.82,27.43,27.43,0,0,0,8.14-6.85,19.64,19.64,0,0,0,3.65-7.31,26.89,26.89,0,0,0,.84-5.87,24.81,24.81,0,0,0-2.21-9.75,23.44,23.44,0,0,0-7.53-9.29A26.38,26.38,0,0,0,7.38.74Q4,.25,0,0V3.1A17.58,17.58,0,0,1,5.81,6a17.13,17.13,0,0,1,5.32,7.23q2.05,4.79,2,12.71a41.17,41.17,0,0,1-1.36,11.57C9.3,45.79,4.6,48.34,2.27,49.06c-.46.14-1.13.3-1.72.43Z"></path>
</svg>
