<svg xmlns="http://www.w3.org/2000/svg" viewBox="0 0 194.24 127.56"><defs><style>.a{fill:#d6102a;}.b{fill:#fff;}.c{fill:#be9f56;}.d{fill:#1d1d1b;}</style></defs><path class="a" d="M68.38,97.72l-1.33-8s-.87-3.83,9-4.4A103.6,103.6,0,0,1,98,86.6c3.36.5,15.8,2.47,20.41,3,4.83.59,18.21,3.34,25.55-2.15,0,0,.71,9.14-9.78,10.71s-26.65-1.08-28.94-1.44c-2.82-.44-14.68-2.37-22.65-2.55C77,94.08,68.18,94.72,68.38,97.72Z"></path><path class="b" d="M75.65,91.73c.08,0,.1,0,.09-.18h0c-.1-1.25-.2-2.29-.3-3.54h0c0-.13,0-.16-.12-.15h0a.19.19,0,0,0,0-.08h0c.89-.11,1.7-.18,2.59-.25h0c.11,0,.12,0,.12-.14h.06c0,.32.06.63.08.94h0c0-.11-.06-.13-.15-.14h0c-.67,0-1.25.09-1.92.16h0c0,.33.06.65.08,1h0c.45,0,.81-.07,1.25-.1h0c.09,0,.14,0,.13-.16h.06c0,.32,0,.62.08.94h-.06c0-.09,0-.13-.14-.12h0L76.18,90h0l.09,1.09h0l2-.14h0c.11,0,.12,0,.12-.13h0c0,.33,0,.59.08.91h0a.12.12,0,0,0-.15-.11h0c-.92,0-1.69.1-2.63.2h0A.25.25,0,0,1,75.65,91.73Z"></path><path class="b" d="M81.7,88.75l-.07,0h0v-.08h0a1.37,1.37,0,0,0-1.08-.51h0c-.66,0-.88.27-.86.66h0c.27,1,2.17-.51,2.51,1.69h0c0,.82-.35,1.27-1.49,1.31h0a2.16,2.16,0,0,1-1.4-.45h0l0,.05h-.05c.09-.35.15-.63.27-1h0l.07,0h0v.09h0c0,.36.54.55,1.08.58h0c.78,0,.94-.25,1-.59h0c-.28-1.17-2.14.38-2.47-1.67h0c0-1,.58-1.39,1.4-1.43h0a2.38,2.38,0,0,1,1.28.47h0l.08,0h0l.06,0h0A9,9,0,0,1,81.7,88.75Z"></path><path class="b" d="M84.72,91.49c0,.13,0,.16.13.17h0a.17.17,0,0,1,0,.07h0l-.82,0h0s0,0,0-.08h0c.09,0,.12,0,.11-.16h0c-.09-1.1-.16-2-.3-3.23h0l-1,0h0c-.11,0-.13,0-.12.15h-.06l-.09-1h0c0,.1,0,.14.16.15h0c.87,0,1.64,0,2.52.08h0c.11,0,.13,0,.12-.14h.06c0,.34.06.66.1,1h-.06c0-.1,0-.15-.15-.15h0c-.34,0-.64,0-1,0h0C84.53,89.43,84.62,90.38,84.72,91.49Z"></path><path class="b" d="M90.12,91.92c.08,0,.1,0,.09-.15h0c-.1-1.25-.14-2.29-.28-3.65h0c0-.13,0-.19-.12-.19h0a.28.28,0,0,1,0-.09h0l.81.08h0a.28.28,0,0,0,0,.09h0c-.12,0-.12,0-.11.17h0c.12,1.19.15,2.12.25,3.23h0c.65.06,1.23.12,1.89.2h0c.08,0,.13,0,.12-.12h.06c0,.31,0,.59.08.9h-.06c0-.08,0-.12-.15-.13h0c-.88-.1-1.69-.18-2.57-.26h0S90.12,92,90.12,91.92Z"></path><path class="b" d="M94.8,89.07c.67.14,1.14.63,1.28,1.63h0c.06,1-.37,1.34-1,1.28h0c-.65-.12-1.11-.56-1.25-1.58h0C93.75,89.39,94.17,89,94.8,89.07Zm-.07-.7c-1-.09-1.56.49-1.5,2h0a2.33,2.33,0,0,0,1.9,2.3h0c1,.07,1.59-.38,1.53-1.84h0A2.48,2.48,0,0,0,94.73,88.37Z"></path><path class="b" d="M100.8,93.16c0,.13,0,.17.12.18h0a.22.22,0,0,1,0,.08h0l-.76-.12h0a.22.22,0,0,0,0-.08h0l.08,0h0l-.09-.15h0c-.73-1-1.37-1.9-2.09-3h0c.09,1,.16,1.79.24,2.73h0c0,.12,0,.16.12.18h0a.15.15,0,0,1,0,.07h0l-.73-.1h0a.22.22,0,0,1,0-.08h0c.09,0,.1,0,.09-.15h0c-.1-1.22-.2-2.28-.33-3.62h0c0-.12,0-.16-.12-.19h0v-.08h0l.88.14h0s0,.05,0,.08h0c-.09,0-.11,0-.11.06h0l0,.1h0c.73,1,1.33,1.91,2,2.9h0c-.08-.9-.15-1.66-.24-2.61h0c0-.13,0-.16-.12-.19h0a.25.25,0,0,1,0-.08h0l.74.12h0a.25.25,0,0,0,0,.08h0c-.09,0-.11,0-.1.16h0C100.63,90.91,100.7,91.94,100.8,93.16Z"></path><path class="b" d="M102.26,90.28l1.07.17h0c.55.12,1,.4,1.08,1.54h0c.08,1.07-.18,1.28-.7,1.22h0L102.5,93h0C102.42,92.08,102.34,91.28,102.26,90.28Zm-.31,3c0,.13,0,.16-.11.15h0a.17.17,0,0,1,0,.07h0l1.91.3h0c.9.1,1.3-.33,1.24-1.75h0c-.16-1.29-.58-2.06-1.68-2.3h0l-1.83-.31h0a.22.22,0,0,1,0,.08h0c.11,0,.12.07.14.19h0C101.75,91.06,101.85,92.11,102,93.32Z"></path><path class="b" d="M107.43,91a1.63,1.63,0,0,1,1.26,1.6h0c.06,1-.35,1.3-1,1.23h0a1.57,1.57,0,0,1-1.26-1.58h0C106.36,91.31,106.76,91,107.43,91Zm-.06-.67c-1.05-.1-1.6.41-1.54,1.83h0a2.42,2.42,0,0,0,1.9,2.3h0c1,.1,1.63-.35,1.54-1.77h0A2.44,2.44,0,0,0,107.37,90.37Z"></path><path class="b" d="M113.35,95c0,.12,0,.16.13.17h0v.08h0l-.76-.1h0s0-.06,0-.08h0l.08,0h0l-.09-.16h0c-.71-1-1.35-1.86-2.09-2.91h0c.08,1,.15,1.74.23,2.67h0c0,.13,0,.16.13.18h0s0,0,0,.07h0l-.73-.1h0a.22.22,0,0,1,0-.08h0c.09,0,.09,0,.08-.15h0c-.1-1.21-.19-2.24-.3-3.52h0c0-.13,0-.17-.12-.18h0v-.08h0c.28,0,.56.09.87.13h0s0,0,0,.07h0l-.1.07h0a.9.9,0,0,0,0,.09h0c.68,1,1.33,1.83,2,2.8h0c-.07-.88-.15-1.63-.22-2.54h0c0-.13,0-.15-.12-.18h0a.22.22,0,0,1,0-.08h0c.26,0,.48.07.74.1h0v.08h0c-.08,0-.1,0-.1.16h0C113.14,92.78,113.24,93.81,113.35,95Z"></path><path class="b" d="M118.17,92.15c.13-.15,0-.22,0-.22h0c.26,0,.52,0,.81.09h0a.17.17,0,0,0,0,.07h0c-.1,0-.12,0-.11.19h0c.1,1.24.18,2.26.31,3.48h0c0,.14.06.19.14.2h0a.25.25,0,0,1,0,.08h0c-.28,0-.54-.06-.83-.09h0v-.07h0c.08,0,.11,0,.1-.19h0c-.09-1-.17-1.75-.25-2.72h0c-.32,0-.34,0-.36.19H118c0-.31,0-.59-.07-.89h0S118,92.3,118.17,92.15Z"></path><path class="b" d="M122.12,93c-.66-.06-1.25-.08-1.91-.14h0c-.08,0-.14,0-.14.12h0c0-.32,0-.62-.08-.94h0c0,.09,0,.12.16.13h0c.83.07,1.53.12,2.39.16h0c.09,0,.14,0,.13-.12h.06c0,.26,0,.47.07.73h0c-.4,1.08-.72,2-1.11,3h0l0,.17h0c0,.06,0,.07.09.07h0v.07h0c-.31,0-.59,0-.91-.06h0v-.08h0c.08,0,.11-.08.16-.17h0C121.39,94.91,121.73,94,122.12,93Z"></path><path class="b" d="M126,95.34c0,.53-.19.7-.71.71h0c-.51,0-.78-.22-.84-.75h0a.65.65,0,0,1,.71-.7h0A.75.75,0,0,1,126,95.34Zm.2-2.46,0,0h0s0,0-.06,0h0a2,2,0,0,1-.33-.19h0a1.5,1.5,0,0,0-.69-.18h0c-1,0-1.42.75-1.36,2.08h0c.17,1.36.65,2,1.65,2.09h0c.68,0,1.28-.32,1.21-1.41h0a1.38,1.38,0,0,0-1.35-1.36h0a1.17,1.17,0,0,0-1,.46h0c0-.86.29-1.19.88-1.21h0c.52,0,.74.34.76.48h0v.06h0l.06,0h0C126,93.45,126.07,93.19,126.16,92.88Z"></path><path class="b" d="M128.41,93.35c.57,0,.93.5,1,1.39h0c.06.9-.22,1.4-.78,1.47h0c-.6,0-.94-.51-1-1.4h0C127.57,93.9,127.82,93.42,128.41,93.35Zm-.06-.66c-.93.1-1.38.85-1.3,2.12h0c.16,1.27.73,2,1.67,2.06h0c.93-.1,1.37-.89,1.29-2.16h0C129.88,93.44,129.32,92.72,128.35,92.69Z"></path><path class="b" d="M86.15,91.48a.42.42,0,0,1,.37-.45h0a.41.41,0,0,1,.38.43h0a.42.42,0,0,1-.37.45h0A.4.4,0,0,1,86.15,91.48Z"></path><path class="c" d="M88,96.2,88.11,99A27,27,0,0,1,94,98.73c2.21.31,3.76,1.43.27,2.07a61.86,61.86,0,0,1-11.34.77c-5.8-.06-11.08-.85-12.94-1.72-2.68-1.27,1.16-3.48,5.68-3.89a47.35,47.35,0,0,1,7.12-.32c1.39,0,3.11.13,5.18.26Z"></path><path class="a" d="M92.19,96.24c3,.28,3.81.42,3.81.42l.39,3.15s0-.88-3.4-1.11a22.49,22.49,0,0,0-4.91.31L88,95.89C90.51,96.05,90.41,96.07,92.19,96.24Z"></path><path class="c" d="M106.62,22.12a29.26,29.26,0,0,0-3,5,15.8,15.8,0,0,0-6.92,3.3l-.52.5.72,0a14.16,14.16,0,0,1,4.71.67C100,35.47,98.78,39,98.77,39L98.4,40.1l7.13-7a29,29,0,0,1,4,2.38l.67.49s-1.7-5.13-1.79-5.39A33.59,33.59,0,0,1,112,26.65l.58-.5-1.43.05a36,36,0,0,0-3.94.29c0-.51-.18-4.94-.18-4.94Z"></path><path class="c" d="M87.92,26.25a20.17,20.17,0,0,0-1.71,3.44,10.59,10.59,0,0,0-4.39,2.5l-.48.53.71-.09a9.38,9.38,0,0,1,3,.24c-.17.54-1.9,6.16-1.9,6.16l.81-.92,3.84-4.37a19.92,19.92,0,0,1,2.67,1.37l.7.45s-1.4-3.47-1.51-3.72a22.48,22.48,0,0,1,2.17-2.71l.54-.53-1.21.12-2.47.36c0-.45-.36-3.43-.36-3.43Z"></path><path class="c" d="M65.14,33.62a13.06,13.06,0,0,0-1.08,2.26,6.79,6.79,0,0,0-2.82,1.65l-.46.53.69-.09a5.76,5.76,0,0,1,1.8.15c-.15.5-1.29,4.4-1.29,4.4l.8-1,2.4-2.82L67.46,40l-.24-.65-.76-1.91a12.31,12.31,0,0,1,1.35-1.74l.52-.52-1,.09-1.52.23c0-.41-.26-2.46-.26-2.46Z"></path><path class="c" d="M76.28,32.58a16.13,16.13,0,0,0-1.44,2.92,8.88,8.88,0,0,0-3.72,2.14l-.47.53.7-.09a7.77,7.77,0,0,1,2.48.19l-1.64,5.41.81-.94L76.22,39a16.23,16.23,0,0,1,2.23,1.16l.7.45-1.32-3.28a21.69,21.69,0,0,1,1.81-2.29l.54-.52L79,34.67,77,35c0-.44-.32-3-.32-3Z"></path><path class="c" d="M96.9,15.3a18.22,18.22,0,0,0-1.45,2.94,9,9,0,0,0-3.74,2.15l-.47.52.7-.08a7.67,7.67,0,0,1,2.51.19c-.17.53-1.65,5.42-1.65,5.42l.8-.93,3.25-3.72A16.54,16.54,0,0,1,99.1,23l.7.45-1.33-3.28a19.54,19.54,0,0,1,1.83-2.3l.54-.53-1.13.12-2.08.3c0-.44-.32-3-.32-3Z"></path><path class="a" d="M86,57.44a5.78,5.78,0,0,1-2.1.42,2.25,2.25,0,0,1-2.21-2.06c-.34-1.72.29-1.61,1.56-1.73a19.7,19.7,0,0,0,4.8-1.77c1.25-.59,2.89-.67,3.61.74s-.33,2.89-1,3.74c-.37.47-.28.75.51.2A21.48,21.48,0,0,1,96.29,54c2.25-.79,3.68,0,3.88,1.89.17,1.65-.76,4.36-1.37,5.88-.07.17-.22.4-.13.41s.19-.16.41-.37c.78-.75,2.45-2.34,3-2.78.37-.28,3.6-2.77,4.7.51A99.18,99.18,0,0,0,110.24,69a27.71,27.71,0,0,0,2.56,3.93c.33.52,1.29,2.26.18,3.1s-5.11-.58-6.86-5.78c-1.58-4.67-1.69-5.12-1.83-5.58s-.61-1.52-3,.86A50.78,50.78,0,0,0,97,70.37c-.82,1.1-1.86,2.7-2.3,3.27s-1.7,2.53-3-.31-.37-4.4.39-6.46,1.65-3.94,1.84-4.71.63-2.47-2-.69A43.77,43.77,0,0,0,84,68.85a35.68,35.68,0,0,1-3,3.21c-.61.56-2.08,1.73-2.42-1.58s.44-3.49,1.62-5S86.39,58.13,86,57.44Z"></path><path class="a" d="M86,57.44a5.78,5.78,0,0,1-2.1.42,2.25,2.25,0,0,1-2.21-2.06c-.34-1.72.29-1.61,1.56-1.73a19.7,19.7,0,0,0,4.8-1.77c1.25-.59,2.89-.67,3.61.74s-.33,2.89-1,3.74c-.37.47-.28.75.51.2A21.48,21.48,0,0,1,96.29,54c2.25-.79,3.68,0,3.88,1.89.17,1.65-.76,4.36-1.37,5.88-.07.17-.22.4-.13.41s.19-.16.41-.37c.78-.75,2.45-2.34,3-2.78.37-.28,3.6-2.77,4.7.51A99.18,99.18,0,0,0,110.24,69a27.71,27.71,0,0,0,2.56,3.93c.33.52,1.29,2.26.18,3.1s-5.11-.58-6.86-5.78c-1.58-4.67-1.69-5.12-1.83-5.58s-.61-1.52-3,.86A50.78,50.78,0,0,0,97,70.37c-.82,1.1-1.86,2.7-2.3,3.27s-1.7,2.53-3-.31-.37-4.4.39-6.46,1.65-3.94,1.84-4.71.63-2.47-2-.69A43.77,43.77,0,0,0,84,68.85a35.68,35.68,0,0,1-3,3.21c-.61.56-2.08,1.73-2.42-1.58s.44-3.49,1.62-5S86.39,58.13,86,57.44Z"></path><path class="a" d="M179.25,41.06s3.9-5.38,10.68-5.25c3.67.08,4.71,2.69,4.19,4.68a4,4,0,0,1-1.45,2.44C191,44.18,187,44.55,187,41.08c0,0-.9-.5-3.46,1.31s-3.25,3.72-2.52,4.12,1.91.36,5.68-.3,5.92.93,6.51,2.06S194.77,53,190.3,57c-3.34,3-4.46,3.86-7.75,5.46a24.76,24.76,0,0,1-6,2.14c-1.11.16-2.75-.33-2.86-1.87s.73-2,2.47-2.44a24.17,24.17,0,0,0,9.1-5c3.56-3.09,4.65-5.61,1.18-5.08s-5.77,1.37-8.11-.19C175.46,48.08,177.54,43.29,179.25,41.06Z"></path><path class="a" d="M69.46,29.47c-7-1.24-13.92.21-20.62,3.14a89.78,89.78,0,0,1,8.58-21.1c2.42-3.84,2.81-5,3-6a18.49,18.49,0,0,1,1.73-4.27c.59-.86.16-2.32-2,0s-3.19,3-8,10.51C48.11,18.05,45,27.41,43,35.53a137.49,137.49,0,0,0-18.8,13.39c.75-5.75,1.57-11.5,2.23-15.37,1.48-8.73.92-8.48-1.25-11.22-2-2.47-2.94-.12-3.63,2.52s-3,18.68-3.51,22.76c-.2,1.55-.45,4-.7,6.88-9.2,7.21-11.88,7.76-13.8,8.4a12.78,12.78,0,0,1-3.14.5.44.44,0,0,0-.35.7c2.36,3.38,6.65,2.83,8.75,2.24s2.35-.67,6.88-3.27c.35-.2.73-.44,1.13-.7-.18,3.52-.28,7.33-.23,11.18.13,11.24,6,18.34,7.24,18.33,1.05,0-.42-2.61-1.11-4.83-1.37-4.43-1.06-13.44-.49-20.82.16-2.06.49-5.2.92-8.8C27.85,53.48,33.87,48.05,40.94,42l.91-.77c-.26,1.43-.47,2.78-.63,4a203.49,203.49,0,0,0-1,30.06c.44,6.37,1.76,10,4.28,9.78,3.43-.31,2.41-6.61,2.15-10a203.37,203.37,0,0,1,1.43-38.31,37.44,37.44,0,0,1,16.57-5.74c2.53-.35,6,.18,6.33-.4S69.46,29.47,69.46,29.47Z"></path><path class="a" d="M128.31,65.94a4.92,4.92,0,0,0,1.78.41,19.53,19.53,0,0,1,2.37-9c2.48-4.36,6.51-5.12,9.15-4.17s3.87,5.27,3.15,8.82c-.81,4-2.88,8.47-9,7.77,0,0,.12,4.23,3.25,3.81s5.27-3,6.93-5.63c1.08-1.74,1.45-2.83,2.09-2.56.46.2.9,2.77-.39,5.7a11.27,11.27,0,0,1-9.43,6c-4.91.33-7.17-3.62-7.8-8.14,0,0-4.93-1.47-3.88-3.25C126.91,65,127.76,65.68,128.31,65.94Zm10.85-8.78c-1.49-.53-2.54,1.87-3.06,4.08s-.82,5.27.25,5.48c.87.17,2.51-2.36,3.24-5.07C140,60.26,140.4,57.6,139.16,57.16Z"></path><path class="a" d="M151.73,50.59c0-.83.14-4,3.25-2.84s2.5,6,2.47,7.12-.13,3-.19,3.88c0,.68-.21,3.26,2.23.28,2.58-3.15,4.88-6.78,5.8-10s1.18-4,3.68-4.46,2.72.56,2.18,3.23S168.36,62.44,168,64.41s-3,15.37-3.83,18.78A115.14,115.14,0,0,1,161,94.28c-1,2.78-4.12,9.51-6.11,9.36s1-3.43,2.52-9.38c1.67-6.53,2.1-10,2.76-13.41s.79-5,1.26-7.71c1-5.45,1.7-11.11,1.93-12.82a45.71,45.71,0,0,1-6,6.59c-2.11,1.72-4.05,1.15-4.72-1.93C152,61.66,151.72,55.24,151.73,50.59Z"></path><path class="a" d="M121.35,22.75c.28-2.06.43-5.29,1.32-6.36s4.58-.61,5,3.8-.72,9.86-1.25,12.75S124,44.81,123.56,47c-.25,1.4-1.76,10.12-2.27,16.09-.35,4.15-.57,8.5,1.38,13.13,1,2.49.74,3.49-.14,3.64-1.4.24-3.37-3.88-4.07-6.4a45.56,45.56,0,0,1-1.85-11.68,80.36,80.36,0,0,1,.76-13.33C117.86,43.78,120.11,32,121.35,22.75Z"></path><path class="a" d="M53.4,56.05c1.53-3,4.14-6,9.23-8.62,4.92-2.52,7.29-2.5,8.18-1.11,1.21,1.89.11,3.49-4.26,5-5.18,1.78-10.38,6.65-9.07,9.26,1.2,2.37,5.78-1.37,8.66-4.65s5.28-4.65,7.09-3.09c1.39,1.2.66,3-.58,6.76-1,3,.19,3.76,1,3.57s1.38-.44,1.23,1.08-2.2,4.11-5,2.83-1.13-6.36-1-7,.39-2.15-1.27,0-5.84,6.8-10.21,6.46C53.73,66.26,50.07,62.6,53.4,56.05Z"></path><path class="a" d="M175.87,69.94A2.1,2.1,0,1,1,178,67.83,2.11,2.11,0,0,1,175.87,69.94Zm0-3.72a1.62,1.62,0,1,0,1.59,1.62A1.59,1.59,0,0,0,175.87,66.22Zm.79,2.65h-.28a.12.12,0,0,1-.12-.07l-.41-.67h-.2v.66a.07.07,0,0,1-.08.08h-.25c-.06,0-.08,0-.08-.08V66.92c0-.07,0-.11.08-.11h.25a1.26,1.26,0,0,1,.82.17.57.57,0,0,1,.21.48.62.62,0,0,1-.37.58l.47.73a.14.14,0,0,1,0,.06S176.7,68.87,176.66,68.87Zm-.88-1.73h-.13v.67h.21a.31.31,0,0,0,.32-.34C176.18,67.23,176,67.14,175.78,67.14Z"></path><path class="d" d="M21.15,118.2c0,.19-.15.24-.35.24H18.75v6.39c0,.22-.05.26-.24.26h-1c-.21,0-.24,0-.24-.25v-6.4H15.16c-.19,0-.26-.08-.26-.27v-.67c0-.17.08-.24.25-.24h5.73c.29,0,.37.09.35.29Z"></path><path class="d" d="M26.74,125.09h-1c-.15,0-.19,0-.19-.22v-3.15c0-.61-.17-1.06-.85-1.06a2.32,2.32,0,0,0-1.35.54v3.67c0,.17-.05.22-.22.22h-1c-.14,0-.18,0-.18-.2v-7.48c0-.2.09-.26.25-.28L23,117a.34.34,0,0,1,.14,0c.13,0,.2.06.2.22v2.84a2.91,2.91,0,0,1,1.78-.61c1.27,0,1.79.8,1.79,2v3.39C26.92,125,26.89,125.09,26.74,125.09Z"></path><path class="d" d="M32.77,122.66H29.46a1.56,1.56,0,0,0,1.62,1.47,4,4,0,0,0,1.39-.27.56.56,0,0,1,.12,0,.16.16,0,0,1,.16.14l.16.58a.83.83,0,0,1,0,.13c0,.08,0,.14-.18.2a5.17,5.17,0,0,1-1.9.36,2.66,2.66,0,0,1-2.83-2.9,2.7,2.7,0,0,1,2.81-2.87,2.22,2.22,0,0,1,1.65.68,2.77,2.77,0,0,1,.67,2v.17C33.15,122.6,33.06,122.66,32.77,122.66Zm-1-1a1.06,1.06,0,0,0-1.05-1.13,1.32,1.32,0,0,0-1.27,1.25H31.8Z"></path><path class="d" d="M41.8,117.52l-.08.68c0,.21-.15.24-.39.24H38.49v2h2.62c.21,0,.28.09.28.25v.64c0,.19-.08.27-.27.27H38.49v3.16c0,.2-.08.28-.27.28h-.88c-.23,0-.31,0-.31-.3v-7.24c0-.19.08-.29.26-.29h4.27c.17,0,.24.06.24.19Z"></path><path class="d" d="M43.61,118.88a.72.72,0,1,1,.76-.71A.73.73,0,0,1,43.61,118.88Zm.41,6.21h-.79c-.21,0-.3-.08-.3-.28v-5c0-.19.12-.26.3-.26H44c.18,0,.28.06.28.26v5C44.3,125,44.21,125.09,44,125.09Z"></path><path class="d" d="M50.44,125.09h-.81c-.2,0-.27-.1-.27-.29v-3.08c0-.62-.17-1.06-.86-1.06a2.29,2.29,0,0,0-1.34.54v3.61c0,.19-.08.28-.27.28h-.82a.25.25,0,0,1-.28-.27v-4.93a.25.25,0,0,1,.29-.29h.73c.16,0,.26.05.27.22l0,.29a2.92,2.92,0,0,1,1.83-.65c1.27,0,1.79.79,1.79,2v3.32C50.72,125,50.65,125.09,50.44,125.09Z"></path><path class="d" d="M56.57,122.66H53.25a1.57,1.57,0,0,0,1.62,1.47,4,4,0,0,0,1.39-.27c.05,0,.08,0,.13,0s.13.05.16.14l.15.58a.39.39,0,0,1,0,.13c0,.08,0,.14-.18.2a5.26,5.26,0,0,1-1.91.36,2.65,2.65,0,0,1-2.82-2.9,2.7,2.7,0,0,1,2.8-2.87,2.2,2.2,0,0,1,1.65.68,2.77,2.77,0,0,1,.67,2v.17C56.94,122.6,56.85,122.66,56.57,122.66Zm-1-1a1.07,1.07,0,0,0-1.06-1.13,1.31,1.31,0,0,0-1.26,1.25H55.6Z"></path><path class="d" d="M59.45,125.23a4.48,4.48,0,0,1-1.75-.4.18.18,0,0,1-.13-.18.36.36,0,0,1,0-.1l.18-.58c0-.11.09-.16.16-.16a.21.21,0,0,1,.12,0,4.25,4.25,0,0,0,1.43.35c.5,0,.84-.23.84-.6s-.22-.49-.68-.67l-.9-.34a1.61,1.61,0,0,1-1.16-1.5c0-1.11,1-1.62,2.05-1.62a4,4,0,0,1,1.64.34c.09,0,.13.09.13.15a.6.6,0,0,1,0,.12l-.19.61a.15.15,0,0,1-.16.12l-.11,0a4,4,0,0,0-1.22-.27c-.48,0-.72.26-.72.52s.13.41.56.58l1,.42a1.54,1.54,0,0,1,1.08,1.44C61.63,124.66,60.6,125.23,59.45,125.23Z"></path><path class="d" d="M65.87,125a3.53,3.53,0,0,1-1.26.26,1.75,1.75,0,0,1-1.36-.48c-.35-.39-.36-.86-.36-1.68v-2.52h-.54c-.21,0-.24,0-.24-.29v-.43c0-.14.06-.23.2-.23h.58v-1.23c0-.19.1-.25.28-.27L64,118H64c.15,0,.22.08.22.25v1.35h1.28c.13,0,.21.05.21.2v.53a.21.21,0,0,1-.23.22H64.26v2.59a1.38,1.38,0,0,0,.14.76.59.59,0,0,0,.53.24,2.51,2.51,0,0,0,.73-.13l.11,0c.08,0,.13,0,.15.14l.11.56a.23.23,0,0,1,0,.07C66,124.87,66,124.92,65.87,125Z"></path><path class="d" d="M75.35,118.2c0,.19-.15.24-.35.24H73v6.39c0,.22,0,.26-.24.26h-1c-.21,0-.24,0-.24-.25v-6.4H69.36c-.19,0-.26-.08-.26-.27v-.67c0-.17.08-.24.25-.24h5.73c.29,0,.37.09.35.29Z"></path><path class="d" d="M77.47,125.23c-1.85,0-2.7-1.25-2.7-2.9a2.65,2.65,0,0,1,2.76-2.87,2.56,2.56,0,0,1,2.7,2.88A2.67,2.67,0,0,1,77.47,125.23Zm0-4.7c-1,0-1.33.87-1.33,1.78s.28,1.84,1.29,1.84,1.33-.88,1.33-1.81S78.52,120.53,77.52,120.53Z"></path><path class="d" d="M86,119.88l-2.22,5.86a2.68,2.68,0,0,1-3.1,1.76.17.17,0,0,1-.17-.19s0-.06,0-.1l.08-.59c0-.15.08-.2.2-.2h.07l.38,0a1.12,1.12,0,0,0,1.22-.78l.22-.51-2.06-5.31a.24.24,0,0,1,0-.09.16.16,0,0,1,.17-.16h1.08a.29.29,0,0,1,.29.2l1.25,3.74,1.19-3.68a.32.32,0,0,1,.34-.26h.92a.16.16,0,0,1,.18.16A.3.3,0,0,1,86,119.88Z"></path><path class="d" d="M91.85,125.23a7.09,7.09,0,0,1-2.16-.36c-.14-.06-.19-.13-.19-.22a.41.41,0,0,1,0-.15l.24-.73c0-.12.09-.18.2-.18l.17,0a5.19,5.19,0,0,0,1.69.34c.61,0,1.3-.29,1.3-1,0-.52-.38-.8-.83-1l-1.47-.74a2.16,2.16,0,0,1-1.33-2,2.39,2.39,0,0,1,2.61-2.14,4.94,4.94,0,0,1,2,.4c.14.07.22.14.22.23a.49.49,0,0,1,0,.15l-.27.68c0,.13-.12.17-.19.17a.58.58,0,0,1-.18,0,4.41,4.41,0,0,0-1.5-.35c-.53,0-1.14.22-1.14.86,0,.46.43.73.8.92l1.26.61a2.21,2.21,0,0,1,1.5,2.07A2.48,2.48,0,0,1,91.85,125.23Z"></path><path class="d" d="M100.53,125.09h-1c-.16,0-.19,0-.19-.22v-3.15c0-.61-.17-1.06-.85-1.06a2.35,2.35,0,0,0-1.36.54v3.67c0,.17,0,.22-.21.22H96c-.13,0-.18,0-.18-.2v-7.48c0-.2.09-.26.25-.28l.78-.1a.39.39,0,0,1,.15,0c.12,0,.19.06.19.22v2.84a2.93,2.93,0,0,1,1.79-.61c1.26,0,1.79.8,1.79,2v3.39C100.72,125,100.68,125.09,100.53,125.09Z"></path><path class="d" d="M104.51,125.23c-1.85,0-2.69-1.25-2.69-2.9a2.65,2.65,0,0,1,2.76-2.87c1.84,0,2.69,1.22,2.69,2.88A2.67,2.67,0,0,1,104.51,125.23Zm.06-4.7c-1,0-1.34.87-1.34,1.78s.28,1.84,1.29,1.84,1.34-.88,1.34-1.81S105.56,120.53,104.57,120.53Z"></path><path class="d" d="M112.84,124.47a2.27,2.27,0,0,1-1.74.77,1.94,1.94,0,0,1-1.37-.53v2.53c0,.23-.11.3-.3.3h-.79c-.18,0-.27-.11-.27-.3v-7.38c0-.19.09-.26.27-.26h.68c.19,0,.29.05.3.22l0,.31a2.19,2.19,0,0,1,1.58-.66,2.1,2.1,0,0,1,1.64.69,3.12,3.12,0,0,1,.71,2.11A3.39,3.39,0,0,1,112.84,124.47Zm-1-3.44a1.08,1.08,0,0,0-.93-.46,1.68,1.68,0,0,0-1.16.55v2.47a1.48,1.48,0,0,0,1.11.55,1.14,1.14,0,0,0,.9-.42,2.16,2.16,0,0,0,.41-1.38A2.25,2.25,0,0,0,111.82,121Z"></path><path class="d" d="M118.18,118.88a.72.72,0,0,1-.76-.7.73.73,0,0,1,.76-.73.72.72,0,1,1,0,1.43Zm.41,6.21h-.79c-.2,0-.29-.08-.29-.28v-5c0-.19.11-.26.29-.26h.79c.18,0,.28.06.28.26v5C118.87,125,118.78,125.09,118.59,125.09Z"></path><path class="d" d="M125,125.09h-.82c-.2,0-.27-.1-.27-.29v-3.08c0-.62-.17-1.06-.86-1.06a2.26,2.26,0,0,0-1.33.54v3.61c0,.19-.08.28-.27.28h-.83a.24.24,0,0,1-.27-.27v-4.93c0-.18.08-.29.28-.29h.74c.15,0,.26.05.27.22v.29a2.94,2.94,0,0,1,1.83-.65c1.27,0,1.79.79,1.79,2v3.32C125.29,125,125.22,125.09,125,125.09Z"></path><path class="d" d="M132.71,125a3.59,3.59,0,0,1-1.27.26,1.75,1.75,0,0,1-1.36-.48c-.35-.39-.36-.86-.36-1.68v-2.52h-.53c-.22,0-.25,0-.25-.29v-.43c0-.14.06-.23.2-.23h.58v-1.23c0-.19.1-.25.28-.27l.82-.1h.05c.15,0,.22.08.22.25v1.35h1.28c.13,0,.21.05.21.2v.53a.2.2,0,0,1-.22.22h-1.27v2.59a1.38,1.38,0,0,0,.14.76.6.6,0,0,0,.54.24,2.44,2.44,0,0,0,.72-.13l.11,0c.08,0,.13,0,.15.14l.11.56a.12.12,0,0,1,0,.07C132.88,124.87,132.82,124.92,132.71,125Z"></path><path class="d" d="M138.52,125.09h-1c-.16,0-.19,0-.19-.22v-3.15c0-.61-.17-1.06-.85-1.06a2.35,2.35,0,0,0-1.36.54v3.67c0,.17,0,.22-.22.22h-1c-.14,0-.18,0-.18-.2v-7.48c0-.2.09-.26.25-.28l.78-.1a.36.36,0,0,1,.15,0c.12,0,.19.06.19.22v2.84a2.91,2.91,0,0,1,1.79-.61c1.26,0,1.78.8,1.78,2v3.39C138.7,125,138.67,125.09,138.52,125.09Z"></path><path class="d" d="M144.56,122.66h-3.32a1.57,1.57,0,0,0,1.62,1.47,4,4,0,0,0,1.39-.27c.05,0,.08,0,.13,0a.16.16,0,0,1,.15.14l.16.58a1.11,1.11,0,0,1,0,.13c0,.08-.05.14-.19.2a5.17,5.17,0,0,1-1.9.36,2.66,2.66,0,0,1-2.83-2.9,2.7,2.7,0,0,1,2.81-2.87,2.2,2.2,0,0,1,1.65.68,2.77,2.77,0,0,1,.67,2v.17C144.93,122.6,144.84,122.66,144.56,122.66Zm-1-1a1.06,1.06,0,0,0-1.05-1.13,1.32,1.32,0,0,0-1.27,1.25h2.32Z"></path><path class="d" d="M158.41,117.55l-2.12,7.24a.36.36,0,0,1-.37.3h-.75a.35.35,0,0,1-.36-.29l-1.47-5.19h0l-1.47,5.15c-.08.26-.17.33-.39.33h-.72c-.19,0-.3,0-.38-.34l-2.16-7.16a.89.89,0,0,1,0-.15c0-.12.07-.18.2-.18h1.09a.35.35,0,0,1,.39.29l1.38,5.21h0l1.43-5.25a.32.32,0,0,1,.34-.25h.76a.31.31,0,0,1,.32.24l1.44,5.26h0l1.37-5.24a.32.32,0,0,1,.35-.26h1a.17.17,0,0,1,.18.18A.43.43,0,0,1,158.41,117.55Z"></path><path class="d" d="M161.19,125.23c-1.85,0-2.7-1.25-2.7-2.9a2.65,2.65,0,0,1,2.76-2.87,2.56,2.56,0,0,1,2.7,2.88A2.67,2.67,0,0,1,161.19,125.23Zm.05-4.7c-1,0-1.33.87-1.33,1.78s.28,1.84,1.29,1.84,1.33-.88,1.33-1.81S162.24,120.53,161.24,120.53Z"></path><path class="d" d="M168.14,119.75l-.13.81a.14.14,0,0,1-.16.14h0a1.55,1.55,0,0,0-.31,0,1.46,1.46,0,0,0-1.08.54v3.6a.24.24,0,0,1-.28.28h-.82c-.18,0-.27-.09-.27-.28v-4.92c0-.23.11-.29.28-.29h.72c.19,0,.29.06.29.22v.36a1.62,1.62,0,0,1,1.37-.72,2,2,0,0,1,.32,0c.07,0,.11.06.11.15A.34.34,0,0,1,168.14,119.75Z"></path><path class="d" d="M170.07,125.09h-.86a.24.24,0,0,1-.26-.27V117.4c0-.19.08-.25.23-.27L170,117h.08a.23.23,0,0,1,.25.25v7.56C170.32,125,170.23,125.09,170.07,125.09Z"></path><path class="d" d="M176.38,125.09h-.74c-.18,0-.26-.09-.27-.22l0-.31a2.23,2.23,0,0,1-1.54.67c-1.64,0-2.39-1.3-2.39-2.82s.88-3,2.48-3a2,2,0,0,1,1.36.53v-2.55c0-.2.05-.28.23-.3l.84-.12h.11c.14,0,.19.06.19.23v7.58A.25.25,0,0,1,176.38,125.09Zm-1.12-4a1.42,1.42,0,0,0-1.09-.55c-.92,0-1.32.85-1.32,1.78s.33,1.79,1.25,1.79a1.68,1.68,0,0,0,1.16-.57Z"></path></svg>