<svg xmlns="http://www.w3.org/2000/svg" viewBox="0 0 226.77 69.78"><defs><style>.a{fill:#fec800;}.b{fill:#0067ac;}</style></defs><path class="a" d="M30,18.45a3.2,3.2,0,1,1,3.21-3.19A3.2,3.2,0,0,1,30,18.45Z"></path><path class="a" d="M30,39a3.21,3.21,0,1,1,3.21-3.2A3.21,3.21,0,0,1,30,39Z"></path><path class="b" d="M0,25.25A25.31,25.31,0,0,0,25.33,50.51a3.26,3.26,0,1,0,0-6.52,18.74,18.74,0,1,1,0-37.47,3.26,3.26,0,1,0,0-6.52A25.32,25.32,0,0,0,0,25.25Z"></path><path class="b" d="M44.09,25.41a13.81,13.81,0,1,1,13.8,13.76A13.79,13.79,0,0,1,44.09,25.41Zm-6.55,0A20.36,20.36,0,1,0,57.89,5.12,20.34,20.34,0,0,0,37.54,25.41Z"></path><path class="b" d="M192.62,25.41a13.81,13.81,0,1,1,13.8,13.76A13.8,13.8,0,0,1,192.62,25.41Zm-6.55,0A20.35,20.35,0,1,0,206.42,5.12,20.34,20.34,0,0,0,186.07,25.41Z"></path><path class="a" d="M81.05,5.93a3.26,3.26,0,1,0,0,6.52h24.43L78.73,38.85a3.25,3.25,0,0,0-1,2.32A3.08,3.08,0,0,0,78,42.4a3.25,3.25,0,0,0,3,2h32.41a3.26,3.26,0,1,0,0-6.52H89l26.76-26.4a3.27,3.27,0,0,0,1-2.32,3.31,3.31,0,0,0-3.27-3.26Z"></path><path class="b" d="M166,4.82h-1.21a16.26,16.26,0,0,0-13,6.46,16.22,16.22,0,0,0-13-6.46h-1.21A16.25,16.25,0,0,0,121.34,21V42.31a3.28,3.28,0,0,0,6.55,0V21a9.7,9.7,0,0,1,9.7-9.68h1.21a9.71,9.71,0,0,1,9.7,9.55V42.31a3.26,3.26,0,0,0,3.26,3.26h0a3.26,3.26,0,0,0,3.27-3.26V21c0-.05,0-.09,0-.13a9.72,9.72,0,0,1,9.71-9.55H166a9.7,9.7,0,0,1,9.7,9.68V42.31a3.28,3.28,0,0,0,6.55,0V21A16.25,16.25,0,0,0,166,4.82Z"></path><path class="b" d="M91.66,52.36c0-.61.32-.92,1-.92a.8.8,0,0,1,.89.92V64.65c0,.64-.3.95-.89.95s-1-.3-1-.91Z"></path><path class="b" d="M97.47,56.56h-.83c-.56,0-.87-.25-.93-.73s.36-.76.93-.76h.83V52.75c0-.54.31-.8.92-.8s1,.28,1,.84v2.28h.84c.6,0,.89.25.89.76s-.26.73-.8.73h-.93v8.2c0,.56-.33.84-1,.84a.78.78,0,0,1-.88-.88Z"></path><path class="b" d="M102.36,54.46l1.31-2.38a1,1,0,0,1,.93-.6c.61,0,.92.24.92.72a1.22,1.22,0,0,1-.16.62L104,55.18a1.24,1.24,0,0,1-.89.68,1,1,0,0,1-1-.83A2.32,2.32,0,0,1,102.36,54.46Z"></path><path class="b" d="M107.55,64.45a1.14,1.14,0,0,1-.52-.84.72.72,0,0,1,.24-.55.81.81,0,0,1,.58-.22,2.68,2.68,0,0,1,1.23.54,3.2,3.2,0,0,0,.58.34,3.53,3.53,0,0,0,1.59.4,3.42,3.42,0,0,0,1.64-.35,1.14,1.14,0,0,0,.71-1.08,1.37,1.37,0,0,0-.88-1.17,12.28,12.28,0,0,0-1.65-.7c-.83-.3-1.37-.51-1.63-.63a4.38,4.38,0,0,1-1.38-1,2,2,0,0,1-.5-1.39,2.64,2.64,0,0,1,1.79-2.46,4.88,4.88,0,0,1,2-.43,6.47,6.47,0,0,1,2,.32,4.29,4.29,0,0,1,1.45.72,1.11,1.11,0,0,1,.45.8.65.65,0,0,1-.25.52,1,1,0,0,1-.59.25,4.72,4.72,0,0,1-1-.44c-.62-.31-1-.49-1-.52a2.1,2.1,0,0,0-.82-.16,2.48,2.48,0,0,0-1.53.37,1.25,1.25,0,0,0-.56.94c.12.57.6,1,1.44,1.37.35.15.77.29,1.27.45s.73.24,1,.35A4.61,4.61,0,0,1,115,61a2.18,2.18,0,0,1,.55,1.54,2.62,2.62,0,0,1-.49,1.49,3.4,3.4,0,0,1-1.42,1.12,5.7,5.7,0,0,1-2.33.44A5.94,5.94,0,0,1,107.55,64.45Z"></path><path class="b" d="M125.62,60.28a5,5,0,0,0,.34,1.88,2.73,2.73,0,0,0,2.71,2,2.9,2.9,0,0,0,2.55-1.2,4.53,4.53,0,0,0,.69-2.64,3.74,3.74,0,0,0-1.48-3.39,2.93,2.93,0,0,0-1.63-.46h0a2.69,2.69,0,0,0-2.32,1.11A4.55,4.55,0,0,0,125.62,60.28ZM132,56.36v-.57a.79.79,0,0,1,.25-.61.85.85,0,0,1,.63-.24.78.78,0,0,1,.89.88v8.9a.78.78,0,0,1-.89.88c-.59,0-.88-.26-.88-.8V64h0a3.74,3.74,0,0,1-3,1.57,5.17,5.17,0,0,1-2.64-.65,4.85,4.85,0,0,1-2.54-4.63,4.94,4.94,0,0,1,2.63-4.79,5,5,0,0,1,2.31-.59,4.3,4.3,0,0,1,3.24,1.42Z"></path><path class="b" d="M143.13,55.86a.82.82,0,0,1,.92-.92.83.83,0,0,1,.94.93v.41l0,0a3.87,3.87,0,0,1,3.14-1.38,3.81,3.81,0,0,1,3.48,1.77,4,4,0,0,1,.56,2.2v5.8q0,.84-.93.84c-.62,0-.92-.28-.92-.84V59a2.35,2.35,0,0,0-.74-1.78,2.69,2.69,0,0,0-1.94-.71,2.56,2.56,0,0,0-2.31,1.15A2.48,2.48,0,0,0,145,59v5.73a.81.81,0,0,1-.9.92,1,1,0,0,1-.69-.27.91.91,0,0,1-.27-.65Z"></path><path class="b" d="M156.7,59.64H163a3.41,3.41,0,0,0-.84-2.31,3,3,0,0,0-2.23-.9,3.15,3.15,0,0,0-2.3.83A3.35,3.35,0,0,0,156.7,59.64Zm-1.9.54a5.33,5.33,0,0,1,2.42-4.48,5.07,5.07,0,0,1,5.29,0,4.89,4.89,0,0,1,1.77,1.92,5.37,5.37,0,0,1,.63,2.51q0,.84-1,.84H156.7a2.89,2.89,0,0,0,1.75,2.82,4.1,4.1,0,0,0,1.74.36A5.11,5.11,0,0,0,163.27,63a1.34,1.34,0,0,1,.71-.32c.45,0,.67.24.67.73a.83.83,0,0,1-.28.62,5.29,5.29,0,0,1-1.79,1.08,6.85,6.85,0,0,1-2.5.45,4.92,4.92,0,0,1-4.1-1.75,5.69,5.69,0,0,1-1.22-3.57A1,1,0,0,0,154.8,60.18Z"></path><path class="b" d="M166.4,56.13a3.22,3.22,0,0,0-.08-.37c0-.51.3-.77.92-.77a1,1,0,0,1,1,.61L170.82,63l2.52-7.29a1,1,0,0,1,1.94,0l2.56,7.25h0l2.47-7.2a1,1,0,0,1,1-.77c.59,0,.88.28.88.85a1.34,1.34,0,0,1-.08.41l-3.24,8.55a1.09,1.09,0,0,1-1.05.85c-.51,0-.87-.32-1.09-1l-2.44-6.94h-.05l-2.4,6.78a2.11,2.11,0,0,1-.48.89,1,1,0,0,1-.7.23c-.5,0-.88-.34-1.14-1Z"></path><path class="b" d="M191.81,60.24a4.71,4.71,0,0,0,.76,2.71,2.61,2.61,0,0,0,2.25,1.17,3,3,0,0,0,3-2,5.36,5.36,0,0,0,.34-1.85,4.48,4.48,0,0,0-.4-2A2.84,2.84,0,0,0,195,56.43a2.81,2.81,0,0,0-2.82,2A5.35,5.35,0,0,0,191.81,60.24Zm6.12-3.88V51.24c0-.56.3-.85.92-.85s1,.3,1,.89V64.72c0,.59-.32.88-1,.88a.92.92,0,0,1-.65-.24.8.8,0,0,1-.27-.6v-.57h-.05a2.59,2.59,0,0,1-1,1,3.83,3.83,0,0,1-1.87.43,4.93,4.93,0,0,1-2.66-.67,4.55,4.55,0,0,1-1.78-1.88,5.86,5.86,0,0,1-.66-2.73,5.94,5.94,0,0,1,.35-2.08,4.87,4.87,0,0,1,2.54-2.89,4.73,4.73,0,0,1,2-.41,3.8,3.8,0,0,1,3.1,1.42Z"></path><path class="b" d="M204.68,60.28a4.82,4.82,0,0,0,.34,1.88,2.73,2.73,0,0,0,2.7,2,2.89,2.89,0,0,0,2.55-1.2,4.46,4.46,0,0,0,.7-2.64,3.75,3.75,0,0,0-1.49-3.39,2.9,2.9,0,0,0-1.63-.46h0a2.72,2.72,0,0,0-2.32,1.11A4.54,4.54,0,0,0,204.68,60.28ZM211,56.36v-.57a.82.82,0,0,1,.24-.61.89.89,0,0,1,.64-.24.78.78,0,0,1,.88.88v8.9a.78.78,0,0,1-.88.88c-.59,0-.88-.26-.88-.8V64h0a3.74,3.74,0,0,1-3,1.57,5.11,5.11,0,0,1-2.63-.65,4.86,4.86,0,0,1-2.55-4.63,4.93,4.93,0,0,1,2.64-4.79,5,5,0,0,1,2.31-.59A4.3,4.3,0,0,1,211,56.36Z"></path><path class="b" d="M218.76,65.08l-3.42-8.88c0-.09-.05-.24-.11-.45,0-.51.29-.76.88-.76a.93.93,0,0,1,1,.6l2.6,7.13h0l2.61-7.16a.85.85,0,0,1,.88-.62c.59,0,.88.28.88.85a1.34,1.34,0,0,1-.08.41L219,69a1.24,1.24,0,0,1-.39.55,1.13,1.13,0,0,1-.64.2c-.47,0-.73-.27-.78-.79,0-.11.07-.29.13-.54Z"></path></svg>