<?xml version="1.0" encoding="UTF-8"?> <svg xmlns="http://www.w3.org/2000/svg" xmlns:xlink="http://www.w3.org/1999/xlink" viewBox="0 0 270 90"><defs><clipPath id="a"><polygon points="10.26 21.04 10.26 40.38 22.79 27.94 22.82 8.47 10.26 21.04" style="fill:none"></polygon></clipPath><linearGradient id="b" x1="-451.86" y1="526.67" x2="-451.21" y2="526.67" gradientTransform="matrix(-60.78, 0, 0, 60.78, -27442.92, -31986.35)" gradientUnits="userSpaceOnUse"><stop offset="0" stop-color="#c38f2d"></stop><stop offset="0.04" stop-color="#c99739"></stop><stop offset="0.19" stop-color="#dcb363"></stop><stop offset="0.32" stop-color="#eac782"></stop><stop offset="0.43" stop-color="#f2d394"></stop><stop offset="0.52" stop-color="#f5d79b"></stop><stop offset="1" stop-color="#c1942f"></stop></linearGradient><clipPath id="c"><polygon points="47.82 25.01 60.37 37.47 60.37 21.01 47.81 8.42 47.82 25.01" style="fill:none"></polygon></clipPath><linearGradient id="d" x1="-451.68" y1="526.64" x2="-451.03" y2="526.64" gradientTransform="matrix(-67.01, 0, 0, 67.01, -30213, -35269.55)" xlink:href="#b"></linearGradient><clipPath id="e"><polygon points="35.3 16.65 68.81 50.23 68.81 37.66 35.3 4.23 35.3 16.65" style="fill:none"></polygon></clipPath><linearGradient id="f" x1="-451.45" y1="531.61" x2="-450.8" y2="531.61" gradientTransform="matrix(0, -71.63, -71.63, 0, 38130.79, -32290.65)" xlink:href="#b"></linearGradient><clipPath id="g"><polygon points="35.3 71.79 35.3 83.97 68.81 50.23 68.81 37.66 35.3 71.79" style="fill:none"></polygon></clipPath><linearGradient id="h" x1="-450.7" y1="527.5" x2="-450.05" y2="527.5" gradientTransform="matrix(-80.19, 0, 0, 80.19, -36062.37, -42237.39)" xlink:href="#b"></linearGradient><clipPath id="i"><polygon points="1.77 37.66 1.77 50.43 35.3 16.65 35.3 4.23 1.77 37.66" style="fill:none"></polygon></clipPath><linearGradient id="j" x1="-450.2" y1="527.78" x2="-449.55" y2="527.78" gradientTransform="matrix(-67.51, 0, 0, 67.51, -30350.77, -35603.2)" gradientUnits="userSpaceOnUse"><stop offset="0" stop-color="#c38f2d"></stop><stop offset="0.22" stop-color="#c4902f"></stop><stop offset="0.31" stop-color="#c79536"></stop><stop offset="0.37" stop-color="#cc9d42"></stop><stop offset="0.41" stop-color="#d4a853"></stop><stop offset="0.45" stop-color="#deb669"></stop><stop offset="0.49" stop-color="#eac884"></stop><stop offset="0.52" stop-color="#f5d79b"></stop><stop offset="1" stop-color="#c1942f"></stop></linearGradient><clipPath id="k"><polygon points="1.77 50.43 35.3 83.97 35.3 71.79 1.77 37.66 1.77 50.43" style="fill:none"></polygon></clipPath><linearGradient id="l" x1="-450.48" y1="531.34" x2="-449.83" y2="531.34" gradientTransform="matrix(0, -60.04, -60.04, 0, 31922.14, -26966.14)" xlink:href="#b"></linearGradient><clipPath id="m"><polygon points="12.15 73.09 24.61 85.77 24.61 56.76 12.15 44.1 12.15 73.09" style="fill:none"></polygon></clipPath><linearGradient id="n" x1="-451.63" y1="527.29" x2="-450.98" y2="527.29" gradientTransform="matrix(-77.6, 0, 0, 77.6, -35030.37, -40854.45)" xlink:href="#b"></linearGradient><clipPath id="o"><polygon points="10.26 21.04 45.93 56.72 58.39 44.06 22.82 8.47 10.26 21.04" style="fill:none"></polygon></clipPath><linearGradient id="p" x1="-451.95" y1="527.98" x2="-451.31" y2="527.98" gradientTransform="matrix(-130.48, 0, 0, 130.48, -58916.76, -68856.25)" xlink:href="#b"></linearGradient><clipPath id="q"><polygon points="45.93 56.72 45.93 85.64 58.39 72.97 58.39 44.06 45.93 56.72" style="fill:none"></polygon></clipPath><linearGradient id="r" x1="-451.53" y1="531.31" x2="-450.88" y2="531.31" gradientTransform="matrix(0, -83.18, -83.18, 0, 44247.08, -37450.85)" gradientUnits="userSpaceOnUse"><stop offset="0" stop-color="#f5d79b"></stop><stop offset="0.3" stop-color="#f5d79b"></stop><stop offset="1" stop-color="#c38f2d"></stop><stop offset="1" stop-color="#c1942f"></stop></linearGradient><clipPath id="s"><polygon points="12.15 44.1 24.61 56.76 60.37 21.01 47.81 8.42 12.15 44.1" style="fill:none"></polygon></clipPath><linearGradient id="t" x1="-451.96" y1="526.92" x2="-451.31" y2="526.92" gradientTransform="matrix(0, 72.41, 72.41, 0, -38116.14, 32739.99)" gradientUnits="userSpaceOnUse"><stop offset="0" stop-color="#c38f2d"></stop><stop offset="0.04" stop-color="#c99739"></stop><stop offset="0.18" stop-color="#dcb363"></stop><stop offset="0.31" stop-color="#eac782"></stop><stop offset="0.41" stop-color="#f2d394"></stop><stop offset="0.49" stop-color="#f5d79b"></stop><stop offset="0.63" stop-color="#e9c781"></stop><stop offset="0.93" stop-color="#c99f40"></stop><stop offset="1" stop-color="#c1942f"></stop></linearGradient></defs><rect width="270" height="90" style="fill:none"></rect><polygon points="80.72 30.62 100.63 30.62 100.63 32.55 92.45 32.55 92.45 60.69 88.91 60.69 88.91 32.55 80.72 32.55 80.72 30.62" style="fill:#b6842a"></polygon><polygon points="124.66 30.64 124.66 60.69 121.08 60.69 121.08 46.44 107.62 46.44 107.62 60.69 104.09 60.69 104.04 30.64 104.09 30.64 107.62 30.64 107.62 44.51 121.08 44.51 121.08 30.64 124.66 30.64" style="fill:#b6842a"></polygon><path d="M137.81,32.69a7.18,7.18,0,0,0-2.39.65,4.25,4.25,0,0,0-2.52,4.46v6.71h11.15v1.28a6,6,0,0,1-1.4.47,11.69,11.69,0,0,1-2.32.18H132.9v7.09A4.23,4.23,0,0,0,135.42,58a6.94,6.94,0,0,0,2.39.64c.85.08,1.59.12,2.23.12h8.32V60.1a5.47,5.47,0,0,1-1.41.42,11.79,11.79,0,0,1-2.33.17H139c-.57,0-1.2,0-1.89-.08a13.11,13.11,0,0,1-2.13-.34,11.46,11.46,0,0,1-2.13-.74A6.38,6.38,0,0,1,131,58.26a5.71,5.71,0,0,1-1.25-1.9,6.25,6.25,0,0,1-.45-2.7v-16a6.23,6.23,0,0,1,.45-2.69A5.66,5.66,0,0,1,131,33.08a6.58,6.58,0,0,1,1.83-1.27,12.23,12.23,0,0,1,2.13-.74,14.3,14.3,0,0,1,2.13-.34q1-.09,1.89-.09h5.62a12.47,12.47,0,0,1,2.33.18,5.88,5.88,0,0,1,1.41.43v1.32H140c-.64,0-1.38,0-2.23.12" style="fill:#b6842a"></path><path d="M185.82,59.08v1a5.16,5.16,0,0,1-1.4.42,11.81,11.81,0,0,1-2.32.17h-7.93a26.11,26.11,0,0,1-2.92-.21,10.43,10.43,0,0,1-3.19-.95,6.82,6.82,0,0,1-2.57-2.12,5.94,5.94,0,0,1-1-3.75v-16a6,6,0,0,1,1-3.74,7,7,0,0,1,2.57-2.13,10.7,10.7,0,0,1,3.19-.94,24.36,24.36,0,0,1,2.92-.23h6.39a12.54,12.54,0,0,1,2.33.18,5.4,5.4,0,0,1,1.4.43v1.32h-9.07c-.65,0-1.37,0-2.21.12a7.2,7.2,0,0,0-2.37.65,4.59,4.59,0,0,0-1.87,1.58,4.68,4.68,0,0,0-.7,2.88V53.53a4.73,4.73,0,0,0,.7,2.9A4.65,4.65,0,0,0,170.64,58a7,7,0,0,0,2.37.64c.84.08,1.56.12,2.21.12h7.15V48.45a2.15,2.15,0,0,0-.47-1.35,1.57,1.57,0,0,0-1.27-.66h-6.22V45.3a13.72,13.72,0,0,1,1.41-.54,8.76,8.76,0,0,1,2.33-.25h2.08a5.6,5.6,0,0,1,4.06,1.55,5.45,5.45,0,0,1,1.53,4.06Z" style="fill:#b6842a"></path><path d="M199.68,38.76h3.73V40a4.13,4.13,0,0,1-1.4.4c-.57.09-1.34.17-2.33.25a15.4,15.4,0,0,0-2,.31,5.69,5.69,0,0,0-1.93.84,4.26,4.26,0,0,0-1.41,1.56,5.09,5.09,0,0,0-.5,2.55V60.69h-3.57V45.87a9,9,0,0,1,.35-2.44A5.35,5.35,0,0,1,192,41.14a7.42,7.42,0,0,1,2.88-1.71,14.33,14.33,0,0,1,4.82-.67" style="fill:#b6842a"></path><path d="M215.5,38.28a11.46,11.46,0,0,1,3.25.47,8.58,8.58,0,0,1,2.78,1.36,6.68,6.68,0,0,1,1.92,2.21,6,6,0,0,1,.72,3v8.95a5.92,5.92,0,0,1-.72,2.93,6.82,6.82,0,0,1-1.92,2.19,9.27,9.27,0,0,1-2.78,1.38,11.46,11.46,0,0,1-3.25.48,11.21,11.21,0,0,1-3.25-.48,9,9,0,0,1-2.78-1.38,7.23,7.23,0,0,1-1.93-2.19,6,6,0,0,1-.71-2.93V45.28a6.14,6.14,0,0,1,.71-3,7.07,7.07,0,0,1,1.93-2.21,8.39,8.39,0,0,1,2.78-1.36,11.2,11.2,0,0,1,3.25-.47m5.14,7.1a5.38,5.38,0,0,0-1.33-3.75,5.7,5.7,0,0,0-7.62,0,5.44,5.44,0,0,0-1.35,3.75v8.69a5.46,5.46,0,0,0,1.35,3.76,5.7,5.7,0,0,0,7.62,0,5.4,5.4,0,0,0,1.33-3.76Z" style="fill:#b6842a"></path><path d="M242.41,38.76H246V54.23a5.82,5.82,0,0,1-.73,2.93,7.57,7.57,0,0,1-1.95,2.19,9.39,9.39,0,0,1-2.78,1.38,11.28,11.28,0,0,1-6.51,0,9,9,0,0,1-2.76-1.38,6.88,6.88,0,0,1-1.94-2.19,5.92,5.92,0,0,1-.72-2.93V38.76h3.57V54.07a5.47,5.47,0,0,0,1.31,3.76,4.84,4.84,0,0,0,3.79,1.46,4.94,4.94,0,0,0,3.83-1.46,5.43,5.43,0,0,0,1.32-3.76Z" style="fill:#b6842a"></path><path d="M258.55,38.76c.54,0,1.16,0,1.86.07a15.79,15.79,0,0,1,2.15.35,12,12,0,0,1,2.11.73,6.18,6.18,0,0,1,1.84,1.25,5.42,5.42,0,0,1,1.27,1.9,6.09,6.09,0,0,1,.44,2.69v7.91a5.76,5.76,0,0,1-1,3.75,6.87,6.87,0,0,1-2.56,2.12,10.81,10.81,0,0,1-3.19.95,26.43,26.43,0,0,1-2.93.21h-4.38v9.39H250.6V38.76Zm6.1,7.15a4.68,4.68,0,0,0-.71-2.9,4.32,4.32,0,0,0-1.86-1.59,7.62,7.62,0,0,0-2.37-.66c-.84-.07-1.55-.11-2.21-.11h-3.33V58.76h3.33c.66,0,1.37,0,2.21-.12a7.08,7.08,0,0,0,2.37-.64,4.55,4.55,0,0,0,1.86-1.57,4.66,4.66,0,0,0,.71-2.9Z" style="fill:#b6842a"></path><g style="clip-path:url(#a)"><rect x="0.37" y="17.58" width="32.34" height="13.7" transform="translate(-8.47 40.08) rotate(-87.94)" style="fill:url(#b)"></rect></g><g style="clip-path:url(#c)"><rect x="38.95" y="15.07" width="30.27" height="15.76" transform="translate(25.19 74.1) rotate(-83.52)" style="fill:url(#d)"></rect></g><g style="clip-path:url(#e)"><rect x="28.62" y="-0.02" width="46.87" height="54.51" transform="translate(-6.09 18.81) rotate(-19.37)" style="fill:url(#f)"></rect></g><g style="clip-path:url(#g)"><rect x="23.53" y="33.17" width="57.06" height="55.28" transform="translate(-27.98 62.49) rotate(-50.64)" style="fill:url(#h)"></rect></g><g style="clip-path:url(#i)"><rect x="-9.52" y="-0.97" width="56.11" height="56.6" transform="translate(-13.72 20.23) rotate(-43.44)" style="fill:url(#j)"></rect></g><g style="clip-path:url(#k)"><rect x="-8.43" y="32.23" width="53.92" height="57.16" transform="matrix(0.82, -0.57, 0.57, 0.82, -31.3, 21.35)" style="fill:url(#l)"></rect></g><g style="clip-path:url(#m)"><rect x="-3.34" y="52.09" width="43.43" height="25.69" transform="translate(-48.96 60.51) rotate(-70.44)" style="fill:url(#n)"></rect></g><g style="clip-path:url(#o)"><rect x="8.11" y="6.44" width="52.43" height="52.32" transform="translate(-1.26 63.81) rotate(-84.78)" style="fill:url(#p)"></rect></g><g style="clip-path:url(#q)"><rect x="42.58" y="43.32" width="19.15" height="43.06" transform="translate(-9.99 9.5) rotate(-9.51)" style="fill:url(#r)"></rect></g><g style="clip-path:url(#s)"><rect x="12.02" y="8.3" width="48.47" height="48.58" transform="translate(-0.17 0.19) rotate(-0.29)" style="fill:url(#t)"></rect></g></svg> 