<svg xmlns="http://www.w3.org/2000/svg" xmlns:xlink="http://www.w3.org/1999/xlink" viewBox="0 0 270 90"><defs><clipPath id="a"><polygon points="13.64 21.69 13.64 40.51 25.84 28.4 25.86 9.46 13.64 21.69" style="fill:none"></polygon></clipPath><linearGradient id="b" x1="-451.85" y1="526.72" x2="-451.22" y2="526.72" gradientTransform="matrix(-60.78, 0, 0, 60.78, -27439.26, -31989.03)" gradientUnits="userSpaceOnUse"><stop offset="0" stop-color="#7f7f7f"></stop><stop offset="0.13" stop-color="#9f9f9f"></stop><stop offset="0.29" stop-color="#bdbdbd"></stop><stop offset="0.42" stop-color="#cfcfcf"></stop><stop offset="0.52" stop-color="#d6d6d6"></stop><stop offset="1" stop-color="#828282"></stop></linearGradient><clipPath id="c"><polygon points="50.19 25.55 62.39 37.67 62.39 21.66 50.17 9.42 50.19 25.55" style="fill:none"></polygon></clipPath><linearGradient id="d" x1="-451.67" y1="526.68" x2="-451.04" y2="526.68" gradientTransform="matrix(-67.01, 0, 0, 67.01, -30210.46, -35271.2)" xlink:href="#b"></linearGradient><clipPath id="e"><polygon points="38 17.42 70.61 50.09 70.61 37.85 38 5.34 38 17.42" style="fill:none"></polygon></clipPath><linearGradient id="f" x1="-451.46" y1="531.58" x2="-450.83" y2="531.58" gradientTransform="matrix(0, -71.63, -71.63, 0, 38131.08, -32291.37)" xlink:href="#b"></linearGradient><clipPath id="g"><polygon points="38 71.06 38 82.91 70.61 50.09 70.61 37.85 38 71.06" style="fill:none"></polygon></clipPath><linearGradient id="h" x1="-450.72" y1="527.51" x2="-450.09" y2="527.51" gradientTransform="matrix(-80.19, 0, 0, 80.19, -36061.88, -42239.28)" xlink:href="#b"></linearGradient><clipPath id="i"><polygon points="5.38 37.85 5.38 50.29 38 17.42 38 5.34 5.38 37.85" style="fill:none"></polygon></clipPath><linearGradient id="j" x1="-450.22" y1="527.82" x2="-449.59" y2="527.82" gradientTransform="matrix(-67.51, 0, 0, 67.51, -30349.58, -35605.24)" gradientUnits="userSpaceOnUse"><stop offset="0" stop-color="#7f7f7f"></stop><stop offset="0.23" stop-color="#818181"></stop><stop offset="0.32" stop-color="#888"></stop><stop offset="0.38" stop-color="#949494"></stop><stop offset="0.43" stop-color="#a5a5a5"></stop><stop offset="0.48" stop-color="#bababa"></stop><stop offset="0.51" stop-color="#d5d5d5"></stop><stop offset="0.52" stop-color="#d6d6d6"></stop><stop offset="1" stop-color="#828282"></stop></linearGradient><clipPath id="k"><polygon points="5.38 50.29 38 82.91 38 71.06 5.38 37.85 5.38 50.29" style="fill:none"></polygon></clipPath><linearGradient id="l" x1="-450.49" y1="531.3" x2="-449.86" y2="531.3" gradientTransform="matrix(0, -60.04, -60.04, 0, 31922.46, -26968.01)" xlink:href="#b"></linearGradient><clipPath id="m"><polygon points="15.48 72.33 27.6 84.66 27.6 56.44 15.48 44.13 15.48 72.33" style="fill:none"></polygon></clipPath><linearGradient id="n" x1="-451.65" y1="527.32" x2="-451.02" y2="527.32" gradientTransform="matrix(-77.6, 0, 0, 77.6, -35028.78, -40857.79)" xlink:href="#b"></linearGradient><clipPath id="o"><polygon points="13.64 21.69 48.34 56.4 60.46 44.09 25.86 9.46 13.64 21.69" style="fill:none"></polygon></clipPath><linearGradient id="p" x1="-451.95" y1="528" x2="-451.32" y2="528" gradientTransform="matrix(-130.48, 0, 0, 130.48, -58913.94, -68858.67)" xlink:href="#b"></linearGradient><clipPath id="q"><polygon points="48.34 56.4 48.34 84.53 60.46 72.22 60.46 44.09 48.34 56.4" style="fill:none"></polygon></clipPath><linearGradient id="r" x1="-451.52" y1="531.28" x2="-450.89" y2="531.28" gradientTransform="matrix(0, -83.18, -83.18, 0, 44247.02, -37451.23)" gradientUnits="userSpaceOnUse"><stop offset="0" stop-color="#d6d6d6"></stop><stop offset="0.3" stop-color="#d6d6d6"></stop><stop offset="1" stop-color="#7f7f7f"></stop><stop offset="1" stop-color="#828282"></stop></linearGradient><clipPath id="s"><polygon points="15.48 44.13 27.6 56.44 62.39 21.66 50.17 9.42 15.48 44.13" style="fill:none"></polygon></clipPath><linearGradient id="t" x1="-451.94" y1="526.96" x2="-451.31" y2="526.96" gradientTransform="matrix(0, 72.41, 72.41, 0, -38116.14, 32739.98)" gradientUnits="userSpaceOnUse"><stop offset="0" stop-color="#7f7f7f"></stop><stop offset="0.13" stop-color="#9f9f9f"></stop><stop offset="0.27" stop-color="#bdbdbd"></stop><stop offset="0.4" stop-color="#cfcfcf"></stop><stop offset="0.49" stop-color="#d6d6d6"></stop><stop offset="0.67" stop-color="#bcbcbc"></stop><stop offset="1" stop-color="#828282"></stop></linearGradient></defs><polygon points="82.19 31.01 101.57 31.01 101.57 32.88 93.61 32.88 93.61 60.26 90.16 60.26 90.16 32.88 82.19 32.88 82.19 31.01" style="fill:#ccc"></polygon><polygon points="124.94 31.03 124.94 60.26 121.46 60.26 121.46 46.4 108.36 46.4 108.36 60.26 104.93 60.26 104.88 31.03 104.93 31.03 108.36 31.03 108.36 44.52 121.46 44.52 121.46 31.03 124.94 31.03" style="fill:#ccc"></polygon><path d="M137.73,33a6.77,6.77,0,0,0-2.32.63A4.13,4.13,0,0,0,133,38v6.53h10.86v1.25a6.11,6.11,0,0,1-1.37.45,10.41,10.41,0,0,1-2.26.18H133v6.9a4.14,4.14,0,0,0,2.46,4.35,6.76,6.76,0,0,0,2.32.62c.83.08,1.55.12,2.18.12H148v1.3a5.79,5.79,0,0,1-1.38.41,12,12,0,0,1-2.26.16h-5.47c-.56,0-1.17,0-1.84-.07a12.41,12.41,0,0,1-2.07-.34,10.18,10.18,0,0,1-2.07-.72,6,6,0,0,1-1.78-1.23,5.68,5.68,0,0,1-1.22-1.85,6.09,6.09,0,0,1-.44-2.62V37.88a6.06,6.06,0,0,1,.44-2.62,5.62,5.62,0,0,1,1.22-1.86,6.22,6.22,0,0,1,1.78-1.23,12.45,12.45,0,0,1,2.07-.73,16.46,16.46,0,0,1,2.07-.32c.67-.06,1.28-.09,1.84-.09h5.47a12.75,12.75,0,0,1,2.26.17,5.77,5.77,0,0,1,1.38.42v1.29h-8.09c-.63,0-1.35,0-2.18.12" style="fill:#ccc"></path><path d="M184.44,58.7v1a5.22,5.22,0,0,1-1.36.41,12.22,12.22,0,0,1-2.26.16h-7.71a24.44,24.44,0,0,1-2.84-.2,9.85,9.85,0,0,1-3.11-.93,6.57,6.57,0,0,1-2.49-2.06,5.77,5.77,0,0,1-1-3.64V37.88a5.88,5.88,0,0,1,1-3.64,6.79,6.79,0,0,1,2.49-2.07,10.38,10.38,0,0,1,3.11-.92,24.92,24.92,0,0,1,2.84-.22h6.21a13,13,0,0,1,2.27.17,5.29,5.29,0,0,1,1.37.42v1.29h-8.83c-.63,0-1.33,0-2.15.12a7,7,0,0,0-2.31.63,4.45,4.45,0,0,0-1.81,1.53,4.62,4.62,0,0,0-.69,2.8V53.3a4.64,4.64,0,0,0,.69,2.82,4.53,4.53,0,0,0,1.81,1.53,7,7,0,0,0,2.31.62c.82.08,1.52.12,2.15.12h7v-10a2.11,2.11,0,0,0-.46-1.31,1.55,1.55,0,0,0-1.24-.64h-6V45.3a11.66,11.66,0,0,1,1.37-.53,8.37,8.37,0,0,1,2.27-.25h2A5.49,5.49,0,0,1,183,46a5.32,5.32,0,0,1,1.48,4Z" style="fill:#ccc"></path><path d="M197.93,38.93h3.62v1.21a4.38,4.38,0,0,1-1.36.39c-.55.08-1.3.16-2.26.24a14.88,14.88,0,0,0-2,.3,5.67,5.67,0,0,0-1.88.81,4.38,4.38,0,0,0-1.37,1.52,4.86,4.86,0,0,0-.48,2.49V60.26h-3.47V45.85a8.56,8.56,0,0,1,.34-2.38,5.13,5.13,0,0,1,1.35-2.23,7.36,7.36,0,0,1,2.79-1.66,14.21,14.21,0,0,1,4.7-.65" style="fill:#ccc"></path><path d="M213.32,38.46a11.18,11.18,0,0,1,3.16.46,8.39,8.39,0,0,1,2.7,1.32,6.65,6.65,0,0,1,1.87,2.15,5.85,5.85,0,0,1,.7,2.88V54a5.73,5.73,0,0,1-.7,2.85A6.68,6.68,0,0,1,219.18,59a9.09,9.09,0,0,1-2.7,1.34,10.84,10.84,0,0,1-3.16.47,10.71,10.71,0,0,1-3.17-.47,8.86,8.86,0,0,1-2.7-1.34,7.1,7.1,0,0,1-1.88-2.13,5.84,5.84,0,0,1-.69-2.85V45.27a6,6,0,0,1,.69-2.88,7.05,7.05,0,0,1,1.88-2.15,8.19,8.19,0,0,1,2.7-1.32,11,11,0,0,1,3.17-.46m5,6.91a5.17,5.17,0,0,0-1.3-3.64,5.51,5.51,0,0,0-7.41,0,5.22,5.22,0,0,0-1.31,3.64v8.45a5.29,5.29,0,0,0,1.31,3.66,5.54,5.54,0,0,0,7.41,0,5.24,5.24,0,0,0,1.3-3.66Z" style="fill:#ccc"></path><path d="M239.5,38.93H243V54a5.74,5.74,0,0,1-.71,2.85,7.45,7.45,0,0,1-1.9,2.13,9.09,9.09,0,0,1-2.7,1.34,10.89,10.89,0,0,1-6.33,0A8.8,8.8,0,0,1,228.64,59a6.87,6.87,0,0,1-1.89-2.13,5.84,5.84,0,0,1-.7-2.85v-15h3.47V53.82a5.37,5.37,0,0,0,1.28,3.66,4.68,4.68,0,0,0,3.69,1.42,4.77,4.77,0,0,0,3.72-1.42,5.28,5.28,0,0,0,1.29-3.66Z" style="fill:#ccc"></path><path d="M255.2,38.93c.52,0,1.13,0,1.81.07a14.92,14.92,0,0,1,2.09.34,11,11,0,0,1,2,.71,6,6,0,0,1,1.79,1.21,5.47,5.47,0,0,1,1.24,1.85,5.94,5.94,0,0,1,.43,2.62v7.7a5.58,5.58,0,0,1-1,3.64,6.5,6.5,0,0,1-2.49,2.06,10,10,0,0,1-3.1.93,24.74,24.74,0,0,1-2.85.2h-4.26V69.4h-3.48V38.93Zm5.94,7a4.68,4.68,0,0,0-.69-2.83,4.22,4.22,0,0,0-1.82-1.54,6.93,6.93,0,0,0-2.3-.64c-.82-.07-1.51-.11-2.16-.11h-3.23V58.39h3.23c.65,0,1.34,0,2.16-.12a6.9,6.9,0,0,0,2.3-.62,4.49,4.49,0,0,0,1.82-1.53,4.64,4.64,0,0,0,.69-2.82Z" style="fill:#ccc"></path><g style="clip-path:url(#a)"><rect x="4.02" y="18.32" width="31.46" height="13.33" transform="translate(-5.93 43.83) rotate(-87.94)" style="fill:url(#b)"></rect></g><g style="clip-path:url(#c)"><rect x="41.56" y="15.88" width="29.45" height="15.33" transform="translate(26.54 76.81) rotate(-83.52)" style="fill:url(#d)"></rect></g><g style="clip-path:url(#e)"><rect x="31.5" y="1.2" width="45.6" height="53.04" transform="translate(-6.12 19.58) rotate(-19.37)" style="fill:url(#f)"></rect></g><g style="clip-path:url(#g)"><rect x="26.55" y="33.49" width="55.51" height="53.78" transform="translate(-26.82 64.07) rotate(-50.64)" style="fill:url(#h)"></rect></g><g style="clip-path:url(#i)"><rect x="-5.6" y="0.28" width="54.59" height="55.07" transform="translate(-13.18 22.54) rotate(-43.44)" style="fill:url(#j)"></rect></g><g style="clip-path:url(#k)"><rect x="-4.54" y="32.58" width="52.46" height="55.61" transform="translate(-30.5 23.07) rotate(-34.67)" style="fill:url(#l)"></rect></g><g style="clip-path:url(#m)"><rect x="0.41" y="51.9" width="42.26" height="25" transform="translate(-46.35 63.13) rotate(-70.44)" style="fill:url(#n)"></rect></g><g style="clip-path:url(#o)"><rect x="11.55" y="7.48" width="51.01" height="50.9" transform="translate(0.88 66.83) rotate(-84.78)" style="fill:url(#p)"></rect></g><g style="clip-path:url(#q)"><rect x="45.09" y="43.36" width="18.63" height="41.9" transform="translate(-9.87 9.87) rotate(-9.51)" style="fill:url(#r)"></rect></g><g style="clip-path:url(#s)"><rect x="15.36" y="9.3" width="47.16" height="47.27" transform="translate(-0.17 0.2) rotate(-0.29)" style="fill:url(#t)"></rect></g><rect width="270" height="90" style="fill:none"></rect></svg>